M48
;DRILL file {KiCad 5.0.0+dfsg1-2} date Sun Jun  2 14:05:03 2019
;FORMAT={2:4/ absolute / inch / suppress trailing zeros}
FMAT,2
INCH,LZ
T1C0.0130
T2C0.0394
T3C0.0440
T4C0.0600
%
G90
G05
M72
T1
X043Y-049
X05697Y-04247
X0615Y-04775
X06275Y-05325
T2
X061Y-057
X061Y-058
X061Y-0385
X062Y-0385
X0635Y-043
X0635Y-044
T3
X0605Y-0495
X0605Y-0525
X0615Y-0495
X0615Y-0525
X0625Y-0495
X0625Y-0525
X0635Y-0495
X0635Y-0525
T4
X04203Y-049
X05697Y-049
X04203Y-0415
X05697Y-0415
X04203Y-0565
X05697Y-0565
T0
M30
