G04 #@! TF.GenerationSoftware,KiCad,Pcbnew,5.0.0+dfsg1-2*
G04 #@! TF.CreationDate,2019-06-02T14:02:43-05:00*
G04 #@! TF.ProjectId,scope-current-shunt,73636F70652D63757272656E742D7368,rev?*
G04 #@! TF.SameCoordinates,Original*
G04 #@! TF.FileFunction,Soldermask,Top*
G04 #@! TF.FilePolarity,Negative*
%FSLAX46Y46*%
G04 Gerber Fmt 4.6, Leading zero omitted, Abs format (unit mm)*
G04 Created by KiCad (PCBNEW 5.0.0+dfsg1-2) date Sun Jun  2 14:02:43 2019*
%MOMM*%
%LPD*%
G01*
G04 APERTURE LIST*
%ADD10C,0.100000*%
%ADD11C,1.275000*%
%ADD12R,2.100000X2.100000*%
%ADD13O,2.100000X2.100000*%
%ADD14C,1.650000*%
%ADD15R,2.076400X2.076400*%
%ADD16C,2.076400*%
%ADD17R,2.940000X2.940000*%
%ADD18C,1.670000*%
G04 APERTURE END LIST*
D10*
G04 #@! TO.C,C1*
G36*
X156559993Y-122516535D02*
X156590935Y-122521125D01*
X156621278Y-122528725D01*
X156650730Y-122539263D01*
X156679008Y-122552638D01*
X156705838Y-122568719D01*
X156730963Y-122587353D01*
X156754140Y-122608360D01*
X156775147Y-122631537D01*
X156793781Y-122656662D01*
X156809862Y-122683492D01*
X156823237Y-122711770D01*
X156833775Y-122741222D01*
X156841375Y-122771565D01*
X156845965Y-122802507D01*
X156847500Y-122833750D01*
X156847500Y-123546250D01*
X156845965Y-123577493D01*
X156841375Y-123608435D01*
X156833775Y-123638778D01*
X156823237Y-123668230D01*
X156809862Y-123696508D01*
X156793781Y-123723338D01*
X156775147Y-123748463D01*
X156754140Y-123771640D01*
X156730963Y-123792647D01*
X156705838Y-123811281D01*
X156679008Y-123827362D01*
X156650730Y-123840737D01*
X156621278Y-123851275D01*
X156590935Y-123858875D01*
X156559993Y-123863465D01*
X156528750Y-123865000D01*
X155891250Y-123865000D01*
X155860007Y-123863465D01*
X155829065Y-123858875D01*
X155798722Y-123851275D01*
X155769270Y-123840737D01*
X155740992Y-123827362D01*
X155714162Y-123811281D01*
X155689037Y-123792647D01*
X155665860Y-123771640D01*
X155644853Y-123748463D01*
X155626219Y-123723338D01*
X155610138Y-123696508D01*
X155596763Y-123668230D01*
X155586225Y-123638778D01*
X155578625Y-123608435D01*
X155574035Y-123577493D01*
X155572500Y-123546250D01*
X155572500Y-122833750D01*
X155574035Y-122802507D01*
X155578625Y-122771565D01*
X155586225Y-122741222D01*
X155596763Y-122711770D01*
X155610138Y-122683492D01*
X155626219Y-122656662D01*
X155644853Y-122631537D01*
X155665860Y-122608360D01*
X155689037Y-122587353D01*
X155714162Y-122568719D01*
X155740992Y-122552638D01*
X155769270Y-122539263D01*
X155798722Y-122528725D01*
X155829065Y-122521125D01*
X155860007Y-122516535D01*
X155891250Y-122515000D01*
X156528750Y-122515000D01*
X156559993Y-122516535D01*
X156559993Y-122516535D01*
G37*
D11*
X156210000Y-123190000D03*
D10*
G36*
X154984993Y-122516535D02*
X155015935Y-122521125D01*
X155046278Y-122528725D01*
X155075730Y-122539263D01*
X155104008Y-122552638D01*
X155130838Y-122568719D01*
X155155963Y-122587353D01*
X155179140Y-122608360D01*
X155200147Y-122631537D01*
X155218781Y-122656662D01*
X155234862Y-122683492D01*
X155248237Y-122711770D01*
X155258775Y-122741222D01*
X155266375Y-122771565D01*
X155270965Y-122802507D01*
X155272500Y-122833750D01*
X155272500Y-123546250D01*
X155270965Y-123577493D01*
X155266375Y-123608435D01*
X155258775Y-123638778D01*
X155248237Y-123668230D01*
X155234862Y-123696508D01*
X155218781Y-123723338D01*
X155200147Y-123748463D01*
X155179140Y-123771640D01*
X155155963Y-123792647D01*
X155130838Y-123811281D01*
X155104008Y-123827362D01*
X155075730Y-123840737D01*
X155046278Y-123851275D01*
X155015935Y-123858875D01*
X154984993Y-123863465D01*
X154953750Y-123865000D01*
X154316250Y-123865000D01*
X154285007Y-123863465D01*
X154254065Y-123858875D01*
X154223722Y-123851275D01*
X154194270Y-123840737D01*
X154165992Y-123827362D01*
X154139162Y-123811281D01*
X154114037Y-123792647D01*
X154090860Y-123771640D01*
X154069853Y-123748463D01*
X154051219Y-123723338D01*
X154035138Y-123696508D01*
X154021763Y-123668230D01*
X154011225Y-123638778D01*
X154003625Y-123608435D01*
X153999035Y-123577493D01*
X153997500Y-123546250D01*
X153997500Y-122833750D01*
X153999035Y-122802507D01*
X154003625Y-122771565D01*
X154011225Y-122741222D01*
X154021763Y-122711770D01*
X154035138Y-122683492D01*
X154051219Y-122656662D01*
X154069853Y-122631537D01*
X154090860Y-122608360D01*
X154114037Y-122587353D01*
X154139162Y-122568719D01*
X154165992Y-122552638D01*
X154194270Y-122539263D01*
X154223722Y-122528725D01*
X154254065Y-122521125D01*
X154285007Y-122516535D01*
X154316250Y-122515000D01*
X154953750Y-122515000D01*
X154984993Y-122516535D01*
X154984993Y-122516535D01*
G37*
D11*
X154635000Y-123190000D03*
G04 #@! TD*
D10*
G04 #@! TO.C,C2*
G36*
X161677493Y-136194035D02*
X161708435Y-136198625D01*
X161738778Y-136206225D01*
X161768230Y-136216763D01*
X161796508Y-136230138D01*
X161823338Y-136246219D01*
X161848463Y-136264853D01*
X161871640Y-136285860D01*
X161892647Y-136309037D01*
X161911281Y-136334162D01*
X161927362Y-136360992D01*
X161940737Y-136389270D01*
X161951275Y-136418722D01*
X161958875Y-136449065D01*
X161963465Y-136480007D01*
X161965000Y-136511250D01*
X161965000Y-137148750D01*
X161963465Y-137179993D01*
X161958875Y-137210935D01*
X161951275Y-137241278D01*
X161940737Y-137270730D01*
X161927362Y-137299008D01*
X161911281Y-137325838D01*
X161892647Y-137350963D01*
X161871640Y-137374140D01*
X161848463Y-137395147D01*
X161823338Y-137413781D01*
X161796508Y-137429862D01*
X161768230Y-137443237D01*
X161738778Y-137453775D01*
X161708435Y-137461375D01*
X161677493Y-137465965D01*
X161646250Y-137467500D01*
X160933750Y-137467500D01*
X160902507Y-137465965D01*
X160871565Y-137461375D01*
X160841222Y-137453775D01*
X160811770Y-137443237D01*
X160783492Y-137429862D01*
X160756662Y-137413781D01*
X160731537Y-137395147D01*
X160708360Y-137374140D01*
X160687353Y-137350963D01*
X160668719Y-137325838D01*
X160652638Y-137299008D01*
X160639263Y-137270730D01*
X160628725Y-137241278D01*
X160621125Y-137210935D01*
X160616535Y-137179993D01*
X160615000Y-137148750D01*
X160615000Y-136511250D01*
X160616535Y-136480007D01*
X160621125Y-136449065D01*
X160628725Y-136418722D01*
X160639263Y-136389270D01*
X160652638Y-136360992D01*
X160668719Y-136334162D01*
X160687353Y-136309037D01*
X160708360Y-136285860D01*
X160731537Y-136264853D01*
X160756662Y-136246219D01*
X160783492Y-136230138D01*
X160811770Y-136216763D01*
X160841222Y-136206225D01*
X160871565Y-136198625D01*
X160902507Y-136194035D01*
X160933750Y-136192500D01*
X161646250Y-136192500D01*
X161677493Y-136194035D01*
X161677493Y-136194035D01*
G37*
D11*
X161290000Y-136830000D03*
D10*
G36*
X161677493Y-134619035D02*
X161708435Y-134623625D01*
X161738778Y-134631225D01*
X161768230Y-134641763D01*
X161796508Y-134655138D01*
X161823338Y-134671219D01*
X161848463Y-134689853D01*
X161871640Y-134710860D01*
X161892647Y-134734037D01*
X161911281Y-134759162D01*
X161927362Y-134785992D01*
X161940737Y-134814270D01*
X161951275Y-134843722D01*
X161958875Y-134874065D01*
X161963465Y-134905007D01*
X161965000Y-134936250D01*
X161965000Y-135573750D01*
X161963465Y-135604993D01*
X161958875Y-135635935D01*
X161951275Y-135666278D01*
X161940737Y-135695730D01*
X161927362Y-135724008D01*
X161911281Y-135750838D01*
X161892647Y-135775963D01*
X161871640Y-135799140D01*
X161848463Y-135820147D01*
X161823338Y-135838781D01*
X161796508Y-135854862D01*
X161768230Y-135868237D01*
X161738778Y-135878775D01*
X161708435Y-135886375D01*
X161677493Y-135890965D01*
X161646250Y-135892500D01*
X160933750Y-135892500D01*
X160902507Y-135890965D01*
X160871565Y-135886375D01*
X160841222Y-135878775D01*
X160811770Y-135868237D01*
X160783492Y-135854862D01*
X160756662Y-135838781D01*
X160731537Y-135820147D01*
X160708360Y-135799140D01*
X160687353Y-135775963D01*
X160668719Y-135750838D01*
X160652638Y-135724008D01*
X160639263Y-135695730D01*
X160628725Y-135666278D01*
X160621125Y-135635935D01*
X160616535Y-135604993D01*
X160615000Y-135573750D01*
X160615000Y-134936250D01*
X160616535Y-134905007D01*
X160621125Y-134874065D01*
X160628725Y-134843722D01*
X160639263Y-134814270D01*
X160652638Y-134785992D01*
X160668719Y-134759162D01*
X160687353Y-134734037D01*
X160708360Y-134710860D01*
X160731537Y-134689853D01*
X160756662Y-134671219D01*
X160783492Y-134655138D01*
X160811770Y-134641763D01*
X160841222Y-134631225D01*
X160871565Y-134623625D01*
X160902507Y-134619035D01*
X160933750Y-134617500D01*
X161646250Y-134617500D01*
X161677493Y-134619035D01*
X161677493Y-134619035D01*
G37*
D11*
X161290000Y-135255000D03*
G04 #@! TD*
D12*
G04 #@! TO.C,J1*
X154940000Y-147320000D03*
D13*
X154940000Y-144780000D03*
G04 #@! TD*
G04 #@! TO.C,J2*
X157480000Y-97790000D03*
D12*
X154940000Y-97790000D03*
G04 #@! TD*
D10*
G04 #@! TO.C,R1*
G36*
X158007346Y-136086589D02*
X158039380Y-136091341D01*
X158070794Y-136099210D01*
X158101286Y-136110120D01*
X158130561Y-136123966D01*
X158158338Y-136140615D01*
X158184350Y-136159907D01*
X158208345Y-136181655D01*
X158230093Y-136205650D01*
X158249385Y-136231662D01*
X158266034Y-136259439D01*
X158279880Y-136288714D01*
X158290790Y-136319206D01*
X158298659Y-136350620D01*
X158303411Y-136382654D01*
X158305000Y-136415000D01*
X158305000Y-137905000D01*
X158303411Y-137937346D01*
X158298659Y-137969380D01*
X158290790Y-138000794D01*
X158279880Y-138031286D01*
X158266034Y-138060561D01*
X158249385Y-138088338D01*
X158230093Y-138114350D01*
X158208345Y-138138345D01*
X158184350Y-138160093D01*
X158158338Y-138179385D01*
X158130561Y-138196034D01*
X158101286Y-138209880D01*
X158070794Y-138220790D01*
X158039380Y-138228659D01*
X158007346Y-138233411D01*
X157975000Y-138235000D01*
X156985000Y-138235000D01*
X156952654Y-138233411D01*
X156920620Y-138228659D01*
X156889206Y-138220790D01*
X156858714Y-138209880D01*
X156829439Y-138196034D01*
X156801662Y-138179385D01*
X156775650Y-138160093D01*
X156751655Y-138138345D01*
X156729907Y-138114350D01*
X156710615Y-138088338D01*
X156693966Y-138060561D01*
X156680120Y-138031286D01*
X156669210Y-138000794D01*
X156661341Y-137969380D01*
X156656589Y-137937346D01*
X156655000Y-137905000D01*
X156655000Y-136415000D01*
X156656589Y-136382654D01*
X156661341Y-136350620D01*
X156669210Y-136319206D01*
X156680120Y-136288714D01*
X156693966Y-136259439D01*
X156710615Y-136231662D01*
X156729907Y-136205650D01*
X156751655Y-136181655D01*
X156775650Y-136159907D01*
X156801662Y-136140615D01*
X156829439Y-136123966D01*
X156858714Y-136110120D01*
X156889206Y-136099210D01*
X156920620Y-136091341D01*
X156952654Y-136086589D01*
X156985000Y-136085000D01*
X157975000Y-136085000D01*
X158007346Y-136086589D01*
X158007346Y-136086589D01*
G37*
D14*
X157480000Y-137160000D03*
D10*
G36*
X155207346Y-136086589D02*
X155239380Y-136091341D01*
X155270794Y-136099210D01*
X155301286Y-136110120D01*
X155330561Y-136123966D01*
X155358338Y-136140615D01*
X155384350Y-136159907D01*
X155408345Y-136181655D01*
X155430093Y-136205650D01*
X155449385Y-136231662D01*
X155466034Y-136259439D01*
X155479880Y-136288714D01*
X155490790Y-136319206D01*
X155498659Y-136350620D01*
X155503411Y-136382654D01*
X155505000Y-136415000D01*
X155505000Y-137905000D01*
X155503411Y-137937346D01*
X155498659Y-137969380D01*
X155490790Y-138000794D01*
X155479880Y-138031286D01*
X155466034Y-138060561D01*
X155449385Y-138088338D01*
X155430093Y-138114350D01*
X155408345Y-138138345D01*
X155384350Y-138160093D01*
X155358338Y-138179385D01*
X155330561Y-138196034D01*
X155301286Y-138209880D01*
X155270794Y-138220790D01*
X155239380Y-138228659D01*
X155207346Y-138233411D01*
X155175000Y-138235000D01*
X154185000Y-138235000D01*
X154152654Y-138233411D01*
X154120620Y-138228659D01*
X154089206Y-138220790D01*
X154058714Y-138209880D01*
X154029439Y-138196034D01*
X154001662Y-138179385D01*
X153975650Y-138160093D01*
X153951655Y-138138345D01*
X153929907Y-138114350D01*
X153910615Y-138088338D01*
X153893966Y-138060561D01*
X153880120Y-138031286D01*
X153869210Y-138000794D01*
X153861341Y-137969380D01*
X153856589Y-137937346D01*
X153855000Y-137905000D01*
X153855000Y-136415000D01*
X153856589Y-136382654D01*
X153861341Y-136350620D01*
X153869210Y-136319206D01*
X153880120Y-136288714D01*
X153893966Y-136259439D01*
X153910615Y-136231662D01*
X153929907Y-136205650D01*
X153951655Y-136181655D01*
X153975650Y-136159907D01*
X154001662Y-136140615D01*
X154029439Y-136123966D01*
X154058714Y-136110120D01*
X154089206Y-136099210D01*
X154120620Y-136091341D01*
X154152654Y-136086589D01*
X154185000Y-136085000D01*
X155175000Y-136085000D01*
X155207346Y-136086589D01*
X155207346Y-136086589D01*
G37*
D14*
X154680000Y-137160000D03*
G04 #@! TD*
D10*
G04 #@! TO.C,R2*
G36*
X159099993Y-122516535D02*
X159130935Y-122521125D01*
X159161278Y-122528725D01*
X159190730Y-122539263D01*
X159219008Y-122552638D01*
X159245838Y-122568719D01*
X159270963Y-122587353D01*
X159294140Y-122608360D01*
X159315147Y-122631537D01*
X159333781Y-122656662D01*
X159349862Y-122683492D01*
X159363237Y-122711770D01*
X159373775Y-122741222D01*
X159381375Y-122771565D01*
X159385965Y-122802507D01*
X159387500Y-122833750D01*
X159387500Y-123546250D01*
X159385965Y-123577493D01*
X159381375Y-123608435D01*
X159373775Y-123638778D01*
X159363237Y-123668230D01*
X159349862Y-123696508D01*
X159333781Y-123723338D01*
X159315147Y-123748463D01*
X159294140Y-123771640D01*
X159270963Y-123792647D01*
X159245838Y-123811281D01*
X159219008Y-123827362D01*
X159190730Y-123840737D01*
X159161278Y-123851275D01*
X159130935Y-123858875D01*
X159099993Y-123863465D01*
X159068750Y-123865000D01*
X158431250Y-123865000D01*
X158400007Y-123863465D01*
X158369065Y-123858875D01*
X158338722Y-123851275D01*
X158309270Y-123840737D01*
X158280992Y-123827362D01*
X158254162Y-123811281D01*
X158229037Y-123792647D01*
X158205860Y-123771640D01*
X158184853Y-123748463D01*
X158166219Y-123723338D01*
X158150138Y-123696508D01*
X158136763Y-123668230D01*
X158126225Y-123638778D01*
X158118625Y-123608435D01*
X158114035Y-123577493D01*
X158112500Y-123546250D01*
X158112500Y-122833750D01*
X158114035Y-122802507D01*
X158118625Y-122771565D01*
X158126225Y-122741222D01*
X158136763Y-122711770D01*
X158150138Y-122683492D01*
X158166219Y-122656662D01*
X158184853Y-122631537D01*
X158205860Y-122608360D01*
X158229037Y-122587353D01*
X158254162Y-122568719D01*
X158280992Y-122552638D01*
X158309270Y-122539263D01*
X158338722Y-122528725D01*
X158369065Y-122521125D01*
X158400007Y-122516535D01*
X158431250Y-122515000D01*
X159068750Y-122515000D01*
X159099993Y-122516535D01*
X159099993Y-122516535D01*
G37*
D11*
X158750000Y-123190000D03*
D10*
G36*
X160674993Y-122516535D02*
X160705935Y-122521125D01*
X160736278Y-122528725D01*
X160765730Y-122539263D01*
X160794008Y-122552638D01*
X160820838Y-122568719D01*
X160845963Y-122587353D01*
X160869140Y-122608360D01*
X160890147Y-122631537D01*
X160908781Y-122656662D01*
X160924862Y-122683492D01*
X160938237Y-122711770D01*
X160948775Y-122741222D01*
X160956375Y-122771565D01*
X160960965Y-122802507D01*
X160962500Y-122833750D01*
X160962500Y-123546250D01*
X160960965Y-123577493D01*
X160956375Y-123608435D01*
X160948775Y-123638778D01*
X160938237Y-123668230D01*
X160924862Y-123696508D01*
X160908781Y-123723338D01*
X160890147Y-123748463D01*
X160869140Y-123771640D01*
X160845963Y-123792647D01*
X160820838Y-123811281D01*
X160794008Y-123827362D01*
X160765730Y-123840737D01*
X160736278Y-123851275D01*
X160705935Y-123858875D01*
X160674993Y-123863465D01*
X160643750Y-123865000D01*
X160006250Y-123865000D01*
X159975007Y-123863465D01*
X159944065Y-123858875D01*
X159913722Y-123851275D01*
X159884270Y-123840737D01*
X159855992Y-123827362D01*
X159829162Y-123811281D01*
X159804037Y-123792647D01*
X159780860Y-123771640D01*
X159759853Y-123748463D01*
X159741219Y-123723338D01*
X159725138Y-123696508D01*
X159711763Y-123668230D01*
X159701225Y-123638778D01*
X159693625Y-123608435D01*
X159689035Y-123577493D01*
X159687500Y-123546250D01*
X159687500Y-122833750D01*
X159689035Y-122802507D01*
X159693625Y-122771565D01*
X159701225Y-122741222D01*
X159711763Y-122711770D01*
X159725138Y-122683492D01*
X159741219Y-122656662D01*
X159759853Y-122631537D01*
X159780860Y-122608360D01*
X159804037Y-122587353D01*
X159829162Y-122568719D01*
X159855992Y-122552638D01*
X159884270Y-122539263D01*
X159913722Y-122528725D01*
X159944065Y-122521125D01*
X159975007Y-122516535D01*
X160006250Y-122515000D01*
X160643750Y-122515000D01*
X160674993Y-122516535D01*
X160674993Y-122516535D01*
G37*
D11*
X160325000Y-123190000D03*
G04 #@! TD*
D10*
G04 #@! TO.C,R3*
G36*
X150247493Y-129691535D02*
X150278435Y-129696125D01*
X150308778Y-129703725D01*
X150338230Y-129714263D01*
X150366508Y-129727638D01*
X150393338Y-129743719D01*
X150418463Y-129762353D01*
X150441640Y-129783360D01*
X150462647Y-129806537D01*
X150481281Y-129831662D01*
X150497362Y-129858492D01*
X150510737Y-129886770D01*
X150521275Y-129916222D01*
X150528875Y-129946565D01*
X150533465Y-129977507D01*
X150535000Y-130008750D01*
X150535000Y-130646250D01*
X150533465Y-130677493D01*
X150528875Y-130708435D01*
X150521275Y-130738778D01*
X150510737Y-130768230D01*
X150497362Y-130796508D01*
X150481281Y-130823338D01*
X150462647Y-130848463D01*
X150441640Y-130871640D01*
X150418463Y-130892647D01*
X150393338Y-130911281D01*
X150366508Y-130927362D01*
X150338230Y-130940737D01*
X150308778Y-130951275D01*
X150278435Y-130958875D01*
X150247493Y-130963465D01*
X150216250Y-130965000D01*
X149503750Y-130965000D01*
X149472507Y-130963465D01*
X149441565Y-130958875D01*
X149411222Y-130951275D01*
X149381770Y-130940737D01*
X149353492Y-130927362D01*
X149326662Y-130911281D01*
X149301537Y-130892647D01*
X149278360Y-130871640D01*
X149257353Y-130848463D01*
X149238719Y-130823338D01*
X149222638Y-130796508D01*
X149209263Y-130768230D01*
X149198725Y-130738778D01*
X149191125Y-130708435D01*
X149186535Y-130677493D01*
X149185000Y-130646250D01*
X149185000Y-130008750D01*
X149186535Y-129977507D01*
X149191125Y-129946565D01*
X149198725Y-129916222D01*
X149209263Y-129886770D01*
X149222638Y-129858492D01*
X149238719Y-129831662D01*
X149257353Y-129806537D01*
X149278360Y-129783360D01*
X149301537Y-129762353D01*
X149326662Y-129743719D01*
X149353492Y-129727638D01*
X149381770Y-129714263D01*
X149411222Y-129703725D01*
X149441565Y-129696125D01*
X149472507Y-129691535D01*
X149503750Y-129690000D01*
X150216250Y-129690000D01*
X150247493Y-129691535D01*
X150247493Y-129691535D01*
G37*
D11*
X149860000Y-130327500D03*
D10*
G36*
X150247493Y-128116535D02*
X150278435Y-128121125D01*
X150308778Y-128128725D01*
X150338230Y-128139263D01*
X150366508Y-128152638D01*
X150393338Y-128168719D01*
X150418463Y-128187353D01*
X150441640Y-128208360D01*
X150462647Y-128231537D01*
X150481281Y-128256662D01*
X150497362Y-128283492D01*
X150510737Y-128311770D01*
X150521275Y-128341222D01*
X150528875Y-128371565D01*
X150533465Y-128402507D01*
X150535000Y-128433750D01*
X150535000Y-129071250D01*
X150533465Y-129102493D01*
X150528875Y-129133435D01*
X150521275Y-129163778D01*
X150510737Y-129193230D01*
X150497362Y-129221508D01*
X150481281Y-129248338D01*
X150462647Y-129273463D01*
X150441640Y-129296640D01*
X150418463Y-129317647D01*
X150393338Y-129336281D01*
X150366508Y-129352362D01*
X150338230Y-129365737D01*
X150308778Y-129376275D01*
X150278435Y-129383875D01*
X150247493Y-129388465D01*
X150216250Y-129390000D01*
X149503750Y-129390000D01*
X149472507Y-129388465D01*
X149441565Y-129383875D01*
X149411222Y-129376275D01*
X149381770Y-129365737D01*
X149353492Y-129352362D01*
X149326662Y-129336281D01*
X149301537Y-129317647D01*
X149278360Y-129296640D01*
X149257353Y-129273463D01*
X149238719Y-129248338D01*
X149222638Y-129221508D01*
X149209263Y-129193230D01*
X149198725Y-129163778D01*
X149191125Y-129133435D01*
X149186535Y-129102493D01*
X149185000Y-129071250D01*
X149185000Y-128433750D01*
X149186535Y-128402507D01*
X149191125Y-128371565D01*
X149198725Y-128341222D01*
X149209263Y-128311770D01*
X149222638Y-128283492D01*
X149238719Y-128256662D01*
X149257353Y-128231537D01*
X149278360Y-128208360D01*
X149301537Y-128187353D01*
X149326662Y-128168719D01*
X149353492Y-128152638D01*
X149381770Y-128139263D01*
X149411222Y-128128725D01*
X149441565Y-128121125D01*
X149472507Y-128116535D01*
X149503750Y-128115000D01*
X150216250Y-128115000D01*
X150247493Y-128116535D01*
X150247493Y-128116535D01*
G37*
D11*
X149860000Y-128752500D03*
G04 #@! TD*
D15*
G04 #@! TO.C,U1*
X153670000Y-133350000D03*
D16*
X156210000Y-133350000D03*
X158750000Y-133350000D03*
X161290000Y-133350000D03*
X161290000Y-125730000D03*
X158750000Y-125730000D03*
X156210000Y-125730000D03*
X153670000Y-125730000D03*
G04 #@! TD*
D17*
G04 #@! TO.C,U2*
X106756200Y-124460000D03*
X144703800Y-124460000D03*
D18*
X145288000Y-130810000D03*
G04 #@! TD*
G04 #@! TO.C,U3*
X145288000Y-111760000D03*
D17*
X144703800Y-105410000D03*
X106756200Y-105410000D03*
G04 #@! TD*
G04 #@! TO.C,U4*
X106756200Y-143510000D03*
X144703800Y-143510000D03*
D18*
X145288000Y-149860000D03*
G04 #@! TD*
D12*
G04 #@! TO.C,J3*
X161290000Y-109220000D03*
D13*
X161290000Y-111760000D03*
G04 #@! TD*
M02*
