G04 #@! TF.GenerationSoftware,KiCad,Pcbnew,5.0.0+dfsg1-2*
G04 #@! TF.CreationDate,2019-06-02T14:02:43-05:00*
G04 #@! TF.ProjectId,scope-current-shunt,73636F70652D63757272656E742D7368,rev?*
G04 #@! TF.SameCoordinates,Original*
G04 #@! TF.FileFunction,Legend,Top*
G04 #@! TF.FilePolarity,Positive*
%FSLAX46Y46*%
G04 Gerber Fmt 4.6, Leading zero omitted, Abs format (unit mm)*
G04 Created by KiCad (PCBNEW 5.0.0+dfsg1-2) date Sun Jun  2 14:02:43 2019*
%MOMM*%
%LPD*%
G01*
G04 APERTURE LIST*
%ADD10C,0.300000*%
%ADD11C,0.120000*%
%ADD12C,0.152400*%
%ADD13C,0.100000*%
%ADD14C,0.127000*%
%ADD15C,0.150000*%
%ADD16C,0.050000*%
%ADD17C,1.275000*%
%ADD18R,2.100000X2.100000*%
%ADD19O,2.100000X2.100000*%
%ADD20C,1.650000*%
%ADD21R,2.076400X2.076400*%
%ADD22C,2.076400*%
%ADD23R,2.940000X2.940000*%
%ADD24C,1.670000*%
G04 APERTURE END LIST*
D10*
X155462857Y-113490000D02*
X155462857Y-112990000D01*
X156248571Y-112775714D02*
X156248571Y-113490000D01*
X154748571Y-113490000D01*
X154748571Y-112775714D01*
X154748571Y-112275714D02*
X156248571Y-111275714D01*
X154748571Y-111275714D02*
X156248571Y-112275714D01*
X154748571Y-110918571D02*
X154748571Y-110061428D01*
X156248571Y-110490000D02*
X154748571Y-110490000D01*
X156248571Y-108704285D02*
X155534285Y-109204285D01*
X156248571Y-109561428D02*
X154748571Y-109561428D01*
X154748571Y-108990000D01*
X154820000Y-108847142D01*
X154891428Y-108775714D01*
X155034285Y-108704285D01*
X155248571Y-108704285D01*
X155391428Y-108775714D01*
X155462857Y-108847142D01*
X155534285Y-108990000D01*
X155534285Y-109561428D01*
X155820000Y-108132857D02*
X155820000Y-107418571D01*
X156248571Y-108275714D02*
X154748571Y-107775714D01*
X156248571Y-107275714D01*
X157370000Y-111632857D02*
X157298571Y-111775714D01*
X157298571Y-111990000D01*
X157370000Y-112204285D01*
X157512857Y-112347142D01*
X157655714Y-112418571D01*
X157941428Y-112490000D01*
X158155714Y-112490000D01*
X158441428Y-112418571D01*
X158584285Y-112347142D01*
X158727142Y-112204285D01*
X158798571Y-111990000D01*
X158798571Y-111847142D01*
X158727142Y-111632857D01*
X158655714Y-111561428D01*
X158155714Y-111561428D01*
X158155714Y-111847142D01*
X158798571Y-110918571D02*
X157298571Y-110918571D01*
X158798571Y-110061428D01*
X157298571Y-110061428D01*
X158798571Y-109347142D02*
X157298571Y-109347142D01*
X157298571Y-108990000D01*
X157370000Y-108775714D01*
X157512857Y-108632857D01*
X157655714Y-108561428D01*
X157941428Y-108490000D01*
X158155714Y-108490000D01*
X158441428Y-108561428D01*
X158584285Y-108632857D01*
X158727142Y-108775714D01*
X158798571Y-108990000D01*
X158798571Y-109347142D01*
X158242142Y-99580000D02*
X158099285Y-99508571D01*
X157885000Y-99508571D01*
X157670714Y-99580000D01*
X157527857Y-99722857D01*
X157456428Y-99865714D01*
X157385000Y-100151428D01*
X157385000Y-100365714D01*
X157456428Y-100651428D01*
X157527857Y-100794285D01*
X157670714Y-100937142D01*
X157885000Y-101008571D01*
X158027857Y-101008571D01*
X158242142Y-100937142D01*
X158313571Y-100865714D01*
X158313571Y-100365714D01*
X158027857Y-100365714D01*
X158956428Y-101008571D02*
X158956428Y-99508571D01*
X159813571Y-101008571D01*
X159813571Y-99508571D01*
X160527857Y-101008571D02*
X160527857Y-99508571D01*
X160885000Y-99508571D01*
X161099285Y-99580000D01*
X161242142Y-99722857D01*
X161313571Y-99865714D01*
X161385000Y-100151428D01*
X161385000Y-100365714D01*
X161313571Y-100651428D01*
X161242142Y-100794285D01*
X161099285Y-100937142D01*
X160885000Y-101008571D01*
X160527857Y-101008571D01*
X152491428Y-99508571D02*
X152991428Y-101008571D01*
X153491428Y-99508571D01*
X154205714Y-101008571D02*
X154062857Y-100937142D01*
X153991428Y-100865714D01*
X153920000Y-100722857D01*
X153920000Y-100294285D01*
X153991428Y-100151428D01*
X154062857Y-100080000D01*
X154205714Y-100008571D01*
X154420000Y-100008571D01*
X154562857Y-100080000D01*
X154634285Y-100151428D01*
X154705714Y-100294285D01*
X154705714Y-100722857D01*
X154634285Y-100865714D01*
X154562857Y-100937142D01*
X154420000Y-101008571D01*
X154205714Y-101008571D01*
X153797142Y-142855000D02*
X153725714Y-142783571D01*
X153582857Y-142569285D01*
X153511428Y-142426428D01*
X153440000Y-142212142D01*
X153368571Y-141855000D01*
X153368571Y-141569285D01*
X153440000Y-141212142D01*
X153511428Y-140997857D01*
X153582857Y-140855000D01*
X153725714Y-140640714D01*
X153797142Y-140569285D01*
X154368571Y-141712142D02*
X155511428Y-141712142D01*
X156082857Y-142855000D02*
X156154285Y-142783571D01*
X156297142Y-142569285D01*
X156368571Y-142426428D01*
X156440000Y-142212142D01*
X156511428Y-141855000D01*
X156511428Y-141569285D01*
X156440000Y-141212142D01*
X156368571Y-140997857D01*
X156297142Y-140855000D01*
X156154285Y-140640714D01*
X156082857Y-140569285D01*
X153797142Y-151745000D02*
X153725714Y-151673571D01*
X153582857Y-151459285D01*
X153511428Y-151316428D01*
X153440000Y-151102142D01*
X153368571Y-150745000D01*
X153368571Y-150459285D01*
X153440000Y-150102142D01*
X153511428Y-149887857D01*
X153582857Y-149745000D01*
X153725714Y-149530714D01*
X153797142Y-149459285D01*
X154368571Y-150602142D02*
X155511428Y-150602142D01*
X154940000Y-151173571D02*
X154940000Y-150030714D01*
X156082857Y-151745000D02*
X156154285Y-151673571D01*
X156297142Y-151459285D01*
X156368571Y-151316428D01*
X156440000Y-151102142D01*
X156511428Y-150745000D01*
X156511428Y-150459285D01*
X156440000Y-150102142D01*
X156368571Y-149887857D01*
X156297142Y-149745000D01*
X156154285Y-149530714D01*
X156082857Y-149459285D01*
X151173571Y-146530000D02*
X149673571Y-146530000D01*
X149673571Y-146172857D01*
X149745000Y-145958571D01*
X149887857Y-145815714D01*
X150030714Y-145744285D01*
X150316428Y-145672857D01*
X150530714Y-145672857D01*
X150816428Y-145744285D01*
X150959285Y-145815714D01*
X151102142Y-145958571D01*
X151173571Y-146172857D01*
X151173571Y-146530000D01*
X149673571Y-145030000D02*
X150887857Y-145030000D01*
X151030714Y-144958571D01*
X151102142Y-144887142D01*
X151173571Y-144744285D01*
X151173571Y-144458571D01*
X151102142Y-144315714D01*
X151030714Y-144244285D01*
X150887857Y-144172857D01*
X149673571Y-144172857D01*
X149673571Y-143672857D02*
X149673571Y-142815714D01*
X151173571Y-143244285D02*
X149673571Y-143244285D01*
D11*
G04 #@! TO.C,C1*
X155585279Y-123700000D02*
X155259721Y-123700000D01*
X155585279Y-122680000D02*
X155259721Y-122680000D01*
G04 #@! TO.C,C2*
X160780000Y-135879721D02*
X160780000Y-136205279D01*
X161800000Y-135879721D02*
X161800000Y-136205279D01*
G04 #@! TO.C,J1*
X156270000Y-143450000D02*
X153610000Y-143450000D01*
X156270000Y-146050000D02*
X156270000Y-143450000D01*
X153610000Y-146050000D02*
X153610000Y-143450000D01*
X156270000Y-146050000D02*
X153610000Y-146050000D01*
X156270000Y-147320000D02*
X156270000Y-148650000D01*
X156270000Y-148650000D02*
X154940000Y-148650000D01*
G04 #@! TO.C,J2*
X153610000Y-99120000D02*
X153610000Y-97790000D01*
X154940000Y-99120000D02*
X153610000Y-99120000D01*
X156210000Y-99120000D02*
X156210000Y-96460000D01*
X156210000Y-96460000D02*
X158810000Y-96460000D01*
X156210000Y-99120000D02*
X158810000Y-99120000D01*
X158810000Y-99120000D02*
X158810000Y-96460000D01*
G04 #@! TO.C,R1*
X156682064Y-138070000D02*
X155477936Y-138070000D01*
X156682064Y-136250000D02*
X155477936Y-136250000D01*
G04 #@! TO.C,R2*
X159374721Y-122680000D02*
X159700279Y-122680000D01*
X159374721Y-123700000D02*
X159700279Y-123700000D01*
G04 #@! TO.C,R3*
X149350000Y-129377221D02*
X149350000Y-129702779D01*
X150370000Y-129377221D02*
X150370000Y-129702779D01*
D12*
G04 #@! TO.C,U1*
X162560000Y-132842000D02*
X162560000Y-126238000D01*
X152400000Y-126238000D02*
X152400000Y-129235200D01*
X152400000Y-129235200D02*
X152400000Y-129844800D01*
X152400000Y-129844800D02*
X152400000Y-132207000D01*
D13*
X152400000Y-129235200D02*
G75*
G02X152400000Y-129844800I0J-304800D01*
G01*
D14*
G04 #@! TO.C,U2*
X147193000Y-115570000D02*
X104267000Y-115570000D01*
X104267000Y-115570000D02*
X104267000Y-133350000D01*
X104267000Y-133350000D02*
X147193000Y-133350000D01*
X147193000Y-133350000D02*
X147193000Y-115570000D01*
G04 #@! TO.C,U3*
X147193000Y-114300000D02*
X147193000Y-96520000D01*
X104267000Y-114300000D02*
X147193000Y-114300000D01*
X104267000Y-96520000D02*
X104267000Y-114300000D01*
X147193000Y-96520000D02*
X104267000Y-96520000D01*
G04 #@! TO.C,U4*
X147193000Y-134620000D02*
X104267000Y-134620000D01*
X104267000Y-134620000D02*
X104267000Y-152400000D01*
X104267000Y-152400000D02*
X147193000Y-152400000D01*
X147193000Y-152400000D02*
X147193000Y-134620000D01*
D11*
G04 #@! TO.C,J3*
X159960000Y-113090000D02*
X162620000Y-113090000D01*
X159960000Y-110490000D02*
X159960000Y-113090000D01*
X162620000Y-110490000D02*
X162620000Y-113090000D01*
X159960000Y-110490000D02*
X162620000Y-110490000D01*
X159960000Y-109220000D02*
X159960000Y-107890000D01*
X159960000Y-107890000D02*
X161290000Y-107890000D01*
G04 #@! TO.C,C1*
D15*
X152868333Y-123547142D02*
X152820714Y-123594761D01*
X152677857Y-123642380D01*
X152582619Y-123642380D01*
X152439761Y-123594761D01*
X152344523Y-123499523D01*
X152296904Y-123404285D01*
X152249285Y-123213809D01*
X152249285Y-123070952D01*
X152296904Y-122880476D01*
X152344523Y-122785238D01*
X152439761Y-122690000D01*
X152582619Y-122642380D01*
X152677857Y-122642380D01*
X152820714Y-122690000D01*
X152868333Y-122737619D01*
X153820714Y-123642380D02*
X153249285Y-123642380D01*
X153535000Y-123642380D02*
X153535000Y-122642380D01*
X153439761Y-122785238D01*
X153344523Y-122880476D01*
X153249285Y-122928095D01*
G04 #@! TO.C,C2*
X163077142Y-136209166D02*
X163124761Y-136256785D01*
X163172380Y-136399642D01*
X163172380Y-136494880D01*
X163124761Y-136637738D01*
X163029523Y-136732976D01*
X162934285Y-136780595D01*
X162743809Y-136828214D01*
X162600952Y-136828214D01*
X162410476Y-136780595D01*
X162315238Y-136732976D01*
X162220000Y-136637738D01*
X162172380Y-136494880D01*
X162172380Y-136399642D01*
X162220000Y-136256785D01*
X162267619Y-136209166D01*
X162267619Y-135828214D02*
X162220000Y-135780595D01*
X162172380Y-135685357D01*
X162172380Y-135447261D01*
X162220000Y-135352023D01*
X162267619Y-135304404D01*
X162362857Y-135256785D01*
X162458095Y-135256785D01*
X162600952Y-135304404D01*
X163172380Y-135875833D01*
X163172380Y-135256785D01*
G04 #@! TO.C,J1*
X157781666Y-145502380D02*
X157781666Y-146216666D01*
X157734047Y-146359523D01*
X157638809Y-146454761D01*
X157495952Y-146502380D01*
X157400714Y-146502380D01*
X158781666Y-146502380D02*
X158210238Y-146502380D01*
X158495952Y-146502380D02*
X158495952Y-145502380D01*
X158400714Y-145645238D01*
X158305476Y-145740476D01*
X158210238Y-145788095D01*
G04 #@! TO.C,J2*
X160107380Y-98123333D02*
X160821666Y-98123333D01*
X160964523Y-98170952D01*
X161059761Y-98266190D01*
X161107380Y-98409047D01*
X161107380Y-98504285D01*
X160202619Y-97694761D02*
X160155000Y-97647142D01*
X160107380Y-97551904D01*
X160107380Y-97313809D01*
X160155000Y-97218571D01*
X160202619Y-97170952D01*
X160297857Y-97123333D01*
X160393095Y-97123333D01*
X160535952Y-97170952D01*
X161107380Y-97742380D01*
X161107380Y-97123333D01*
G04 #@! TO.C,R1*
X155913333Y-139432380D02*
X155580000Y-138956190D01*
X155341904Y-139432380D02*
X155341904Y-138432380D01*
X155722857Y-138432380D01*
X155818095Y-138480000D01*
X155865714Y-138527619D01*
X155913333Y-138622857D01*
X155913333Y-138765714D01*
X155865714Y-138860952D01*
X155818095Y-138908571D01*
X155722857Y-138956190D01*
X155341904Y-138956190D01*
X156865714Y-139432380D02*
X156294285Y-139432380D01*
X156580000Y-139432380D02*
X156580000Y-138432380D01*
X156484761Y-138575238D01*
X156389523Y-138670476D01*
X156294285Y-138718095D01*
G04 #@! TO.C,R2*
X159370833Y-122212380D02*
X159037500Y-121736190D01*
X158799404Y-122212380D02*
X158799404Y-121212380D01*
X159180357Y-121212380D01*
X159275595Y-121260000D01*
X159323214Y-121307619D01*
X159370833Y-121402857D01*
X159370833Y-121545714D01*
X159323214Y-121640952D01*
X159275595Y-121688571D01*
X159180357Y-121736190D01*
X158799404Y-121736190D01*
X159751785Y-121307619D02*
X159799404Y-121260000D01*
X159894642Y-121212380D01*
X160132738Y-121212380D01*
X160227976Y-121260000D01*
X160275595Y-121307619D01*
X160323214Y-121402857D01*
X160323214Y-121498095D01*
X160275595Y-121640952D01*
X159704166Y-122212380D01*
X160323214Y-122212380D01*
G04 #@! TO.C,R3*
X149693333Y-127452380D02*
X149360000Y-126976190D01*
X149121904Y-127452380D02*
X149121904Y-126452380D01*
X149502857Y-126452380D01*
X149598095Y-126500000D01*
X149645714Y-126547619D01*
X149693333Y-126642857D01*
X149693333Y-126785714D01*
X149645714Y-126880952D01*
X149598095Y-126928571D01*
X149502857Y-126976190D01*
X149121904Y-126976190D01*
X150026666Y-126452380D02*
X150645714Y-126452380D01*
X150312380Y-126833333D01*
X150455238Y-126833333D01*
X150550476Y-126880952D01*
X150598095Y-126928571D01*
X150645714Y-127023809D01*
X150645714Y-127261904D01*
X150598095Y-127357142D01*
X150550476Y-127404761D01*
X150455238Y-127452380D01*
X150169523Y-127452380D01*
X150074285Y-127404761D01*
X150026666Y-127357142D01*
G04 #@! TO.C,U1*
D16*
X148960289Y-134601771D02*
X150290296Y-134601771D01*
X150446767Y-134523535D01*
X150525003Y-134445300D01*
X150603239Y-134288828D01*
X150603239Y-133975885D01*
X150525003Y-133819414D01*
X150446767Y-133741178D01*
X150290296Y-133662942D01*
X148960289Y-133662942D01*
X150603239Y-132019992D02*
X150603239Y-132958821D01*
X150603239Y-132489407D02*
X148960289Y-132489407D01*
X149194996Y-132645878D01*
X149351467Y-132802350D01*
X149429703Y-132958821D01*
G04 #@! TO.C,U2*
X125044285Y-123912380D02*
X125044285Y-124721904D01*
X125087142Y-124817142D01*
X125130000Y-124864761D01*
X125215714Y-124912380D01*
X125387142Y-124912380D01*
X125472857Y-124864761D01*
X125515714Y-124817142D01*
X125558571Y-124721904D01*
X125558571Y-123912380D01*
X125944285Y-124007619D02*
X125987142Y-123960000D01*
X126072857Y-123912380D01*
X126287142Y-123912380D01*
X126372857Y-123960000D01*
X126415714Y-124007619D01*
X126458571Y-124102857D01*
X126458571Y-124198095D01*
X126415714Y-124340952D01*
X125901428Y-124912380D01*
X126458571Y-124912380D01*
G04 #@! TO.C,U3*
X125044285Y-104862380D02*
X125044285Y-105671904D01*
X125087142Y-105767142D01*
X125130000Y-105814761D01*
X125215714Y-105862380D01*
X125387142Y-105862380D01*
X125472857Y-105814761D01*
X125515714Y-105767142D01*
X125558571Y-105671904D01*
X125558571Y-104862380D01*
X125901428Y-104862380D02*
X126458571Y-104862380D01*
X126158571Y-105243333D01*
X126287142Y-105243333D01*
X126372857Y-105290952D01*
X126415714Y-105338571D01*
X126458571Y-105433809D01*
X126458571Y-105671904D01*
X126415714Y-105767142D01*
X126372857Y-105814761D01*
X126287142Y-105862380D01*
X126030000Y-105862380D01*
X125944285Y-105814761D01*
X125901428Y-105767142D01*
G04 #@! TO.C,U4*
X125044285Y-142962380D02*
X125044285Y-143771904D01*
X125087142Y-143867142D01*
X125130000Y-143914761D01*
X125215714Y-143962380D01*
X125387142Y-143962380D01*
X125472857Y-143914761D01*
X125515714Y-143867142D01*
X125558571Y-143771904D01*
X125558571Y-142962380D01*
X126372857Y-143295714D02*
X126372857Y-143962380D01*
X126158571Y-142914761D02*
X125944285Y-143629047D01*
X126501428Y-143629047D01*
G04 #@! TO.C,J3*
D15*
X160956666Y-106342380D02*
X160956666Y-107056666D01*
X160909047Y-107199523D01*
X160813809Y-107294761D01*
X160670952Y-107342380D01*
X160575714Y-107342380D01*
X161337619Y-106342380D02*
X161956666Y-106342380D01*
X161623333Y-106723333D01*
X161766190Y-106723333D01*
X161861428Y-106770952D01*
X161909047Y-106818571D01*
X161956666Y-106913809D01*
X161956666Y-107151904D01*
X161909047Y-107247142D01*
X161861428Y-107294761D01*
X161766190Y-107342380D01*
X161480476Y-107342380D01*
X161385238Y-107294761D01*
X161337619Y-107247142D01*
G04 #@! TD*
%LPC*%
D13*
G04 #@! TO.C,C1*
G36*
X156559993Y-122516535D02*
X156590935Y-122521125D01*
X156621278Y-122528725D01*
X156650730Y-122539263D01*
X156679008Y-122552638D01*
X156705838Y-122568719D01*
X156730963Y-122587353D01*
X156754140Y-122608360D01*
X156775147Y-122631537D01*
X156793781Y-122656662D01*
X156809862Y-122683492D01*
X156823237Y-122711770D01*
X156833775Y-122741222D01*
X156841375Y-122771565D01*
X156845965Y-122802507D01*
X156847500Y-122833750D01*
X156847500Y-123546250D01*
X156845965Y-123577493D01*
X156841375Y-123608435D01*
X156833775Y-123638778D01*
X156823237Y-123668230D01*
X156809862Y-123696508D01*
X156793781Y-123723338D01*
X156775147Y-123748463D01*
X156754140Y-123771640D01*
X156730963Y-123792647D01*
X156705838Y-123811281D01*
X156679008Y-123827362D01*
X156650730Y-123840737D01*
X156621278Y-123851275D01*
X156590935Y-123858875D01*
X156559993Y-123863465D01*
X156528750Y-123865000D01*
X155891250Y-123865000D01*
X155860007Y-123863465D01*
X155829065Y-123858875D01*
X155798722Y-123851275D01*
X155769270Y-123840737D01*
X155740992Y-123827362D01*
X155714162Y-123811281D01*
X155689037Y-123792647D01*
X155665860Y-123771640D01*
X155644853Y-123748463D01*
X155626219Y-123723338D01*
X155610138Y-123696508D01*
X155596763Y-123668230D01*
X155586225Y-123638778D01*
X155578625Y-123608435D01*
X155574035Y-123577493D01*
X155572500Y-123546250D01*
X155572500Y-122833750D01*
X155574035Y-122802507D01*
X155578625Y-122771565D01*
X155586225Y-122741222D01*
X155596763Y-122711770D01*
X155610138Y-122683492D01*
X155626219Y-122656662D01*
X155644853Y-122631537D01*
X155665860Y-122608360D01*
X155689037Y-122587353D01*
X155714162Y-122568719D01*
X155740992Y-122552638D01*
X155769270Y-122539263D01*
X155798722Y-122528725D01*
X155829065Y-122521125D01*
X155860007Y-122516535D01*
X155891250Y-122515000D01*
X156528750Y-122515000D01*
X156559993Y-122516535D01*
X156559993Y-122516535D01*
G37*
D17*
X156210000Y-123190000D03*
D13*
G36*
X154984993Y-122516535D02*
X155015935Y-122521125D01*
X155046278Y-122528725D01*
X155075730Y-122539263D01*
X155104008Y-122552638D01*
X155130838Y-122568719D01*
X155155963Y-122587353D01*
X155179140Y-122608360D01*
X155200147Y-122631537D01*
X155218781Y-122656662D01*
X155234862Y-122683492D01*
X155248237Y-122711770D01*
X155258775Y-122741222D01*
X155266375Y-122771565D01*
X155270965Y-122802507D01*
X155272500Y-122833750D01*
X155272500Y-123546250D01*
X155270965Y-123577493D01*
X155266375Y-123608435D01*
X155258775Y-123638778D01*
X155248237Y-123668230D01*
X155234862Y-123696508D01*
X155218781Y-123723338D01*
X155200147Y-123748463D01*
X155179140Y-123771640D01*
X155155963Y-123792647D01*
X155130838Y-123811281D01*
X155104008Y-123827362D01*
X155075730Y-123840737D01*
X155046278Y-123851275D01*
X155015935Y-123858875D01*
X154984993Y-123863465D01*
X154953750Y-123865000D01*
X154316250Y-123865000D01*
X154285007Y-123863465D01*
X154254065Y-123858875D01*
X154223722Y-123851275D01*
X154194270Y-123840737D01*
X154165992Y-123827362D01*
X154139162Y-123811281D01*
X154114037Y-123792647D01*
X154090860Y-123771640D01*
X154069853Y-123748463D01*
X154051219Y-123723338D01*
X154035138Y-123696508D01*
X154021763Y-123668230D01*
X154011225Y-123638778D01*
X154003625Y-123608435D01*
X153999035Y-123577493D01*
X153997500Y-123546250D01*
X153997500Y-122833750D01*
X153999035Y-122802507D01*
X154003625Y-122771565D01*
X154011225Y-122741222D01*
X154021763Y-122711770D01*
X154035138Y-122683492D01*
X154051219Y-122656662D01*
X154069853Y-122631537D01*
X154090860Y-122608360D01*
X154114037Y-122587353D01*
X154139162Y-122568719D01*
X154165992Y-122552638D01*
X154194270Y-122539263D01*
X154223722Y-122528725D01*
X154254065Y-122521125D01*
X154285007Y-122516535D01*
X154316250Y-122515000D01*
X154953750Y-122515000D01*
X154984993Y-122516535D01*
X154984993Y-122516535D01*
G37*
D17*
X154635000Y-123190000D03*
G04 #@! TD*
D13*
G04 #@! TO.C,C2*
G36*
X161677493Y-136194035D02*
X161708435Y-136198625D01*
X161738778Y-136206225D01*
X161768230Y-136216763D01*
X161796508Y-136230138D01*
X161823338Y-136246219D01*
X161848463Y-136264853D01*
X161871640Y-136285860D01*
X161892647Y-136309037D01*
X161911281Y-136334162D01*
X161927362Y-136360992D01*
X161940737Y-136389270D01*
X161951275Y-136418722D01*
X161958875Y-136449065D01*
X161963465Y-136480007D01*
X161965000Y-136511250D01*
X161965000Y-137148750D01*
X161963465Y-137179993D01*
X161958875Y-137210935D01*
X161951275Y-137241278D01*
X161940737Y-137270730D01*
X161927362Y-137299008D01*
X161911281Y-137325838D01*
X161892647Y-137350963D01*
X161871640Y-137374140D01*
X161848463Y-137395147D01*
X161823338Y-137413781D01*
X161796508Y-137429862D01*
X161768230Y-137443237D01*
X161738778Y-137453775D01*
X161708435Y-137461375D01*
X161677493Y-137465965D01*
X161646250Y-137467500D01*
X160933750Y-137467500D01*
X160902507Y-137465965D01*
X160871565Y-137461375D01*
X160841222Y-137453775D01*
X160811770Y-137443237D01*
X160783492Y-137429862D01*
X160756662Y-137413781D01*
X160731537Y-137395147D01*
X160708360Y-137374140D01*
X160687353Y-137350963D01*
X160668719Y-137325838D01*
X160652638Y-137299008D01*
X160639263Y-137270730D01*
X160628725Y-137241278D01*
X160621125Y-137210935D01*
X160616535Y-137179993D01*
X160615000Y-137148750D01*
X160615000Y-136511250D01*
X160616535Y-136480007D01*
X160621125Y-136449065D01*
X160628725Y-136418722D01*
X160639263Y-136389270D01*
X160652638Y-136360992D01*
X160668719Y-136334162D01*
X160687353Y-136309037D01*
X160708360Y-136285860D01*
X160731537Y-136264853D01*
X160756662Y-136246219D01*
X160783492Y-136230138D01*
X160811770Y-136216763D01*
X160841222Y-136206225D01*
X160871565Y-136198625D01*
X160902507Y-136194035D01*
X160933750Y-136192500D01*
X161646250Y-136192500D01*
X161677493Y-136194035D01*
X161677493Y-136194035D01*
G37*
D17*
X161290000Y-136830000D03*
D13*
G36*
X161677493Y-134619035D02*
X161708435Y-134623625D01*
X161738778Y-134631225D01*
X161768230Y-134641763D01*
X161796508Y-134655138D01*
X161823338Y-134671219D01*
X161848463Y-134689853D01*
X161871640Y-134710860D01*
X161892647Y-134734037D01*
X161911281Y-134759162D01*
X161927362Y-134785992D01*
X161940737Y-134814270D01*
X161951275Y-134843722D01*
X161958875Y-134874065D01*
X161963465Y-134905007D01*
X161965000Y-134936250D01*
X161965000Y-135573750D01*
X161963465Y-135604993D01*
X161958875Y-135635935D01*
X161951275Y-135666278D01*
X161940737Y-135695730D01*
X161927362Y-135724008D01*
X161911281Y-135750838D01*
X161892647Y-135775963D01*
X161871640Y-135799140D01*
X161848463Y-135820147D01*
X161823338Y-135838781D01*
X161796508Y-135854862D01*
X161768230Y-135868237D01*
X161738778Y-135878775D01*
X161708435Y-135886375D01*
X161677493Y-135890965D01*
X161646250Y-135892500D01*
X160933750Y-135892500D01*
X160902507Y-135890965D01*
X160871565Y-135886375D01*
X160841222Y-135878775D01*
X160811770Y-135868237D01*
X160783492Y-135854862D01*
X160756662Y-135838781D01*
X160731537Y-135820147D01*
X160708360Y-135799140D01*
X160687353Y-135775963D01*
X160668719Y-135750838D01*
X160652638Y-135724008D01*
X160639263Y-135695730D01*
X160628725Y-135666278D01*
X160621125Y-135635935D01*
X160616535Y-135604993D01*
X160615000Y-135573750D01*
X160615000Y-134936250D01*
X160616535Y-134905007D01*
X160621125Y-134874065D01*
X160628725Y-134843722D01*
X160639263Y-134814270D01*
X160652638Y-134785992D01*
X160668719Y-134759162D01*
X160687353Y-134734037D01*
X160708360Y-134710860D01*
X160731537Y-134689853D01*
X160756662Y-134671219D01*
X160783492Y-134655138D01*
X160811770Y-134641763D01*
X160841222Y-134631225D01*
X160871565Y-134623625D01*
X160902507Y-134619035D01*
X160933750Y-134617500D01*
X161646250Y-134617500D01*
X161677493Y-134619035D01*
X161677493Y-134619035D01*
G37*
D17*
X161290000Y-135255000D03*
G04 #@! TD*
D18*
G04 #@! TO.C,J1*
X154940000Y-147320000D03*
D19*
X154940000Y-144780000D03*
G04 #@! TD*
G04 #@! TO.C,J2*
X157480000Y-97790000D03*
D18*
X154940000Y-97790000D03*
G04 #@! TD*
D13*
G04 #@! TO.C,R1*
G36*
X158007346Y-136086589D02*
X158039380Y-136091341D01*
X158070794Y-136099210D01*
X158101286Y-136110120D01*
X158130561Y-136123966D01*
X158158338Y-136140615D01*
X158184350Y-136159907D01*
X158208345Y-136181655D01*
X158230093Y-136205650D01*
X158249385Y-136231662D01*
X158266034Y-136259439D01*
X158279880Y-136288714D01*
X158290790Y-136319206D01*
X158298659Y-136350620D01*
X158303411Y-136382654D01*
X158305000Y-136415000D01*
X158305000Y-137905000D01*
X158303411Y-137937346D01*
X158298659Y-137969380D01*
X158290790Y-138000794D01*
X158279880Y-138031286D01*
X158266034Y-138060561D01*
X158249385Y-138088338D01*
X158230093Y-138114350D01*
X158208345Y-138138345D01*
X158184350Y-138160093D01*
X158158338Y-138179385D01*
X158130561Y-138196034D01*
X158101286Y-138209880D01*
X158070794Y-138220790D01*
X158039380Y-138228659D01*
X158007346Y-138233411D01*
X157975000Y-138235000D01*
X156985000Y-138235000D01*
X156952654Y-138233411D01*
X156920620Y-138228659D01*
X156889206Y-138220790D01*
X156858714Y-138209880D01*
X156829439Y-138196034D01*
X156801662Y-138179385D01*
X156775650Y-138160093D01*
X156751655Y-138138345D01*
X156729907Y-138114350D01*
X156710615Y-138088338D01*
X156693966Y-138060561D01*
X156680120Y-138031286D01*
X156669210Y-138000794D01*
X156661341Y-137969380D01*
X156656589Y-137937346D01*
X156655000Y-137905000D01*
X156655000Y-136415000D01*
X156656589Y-136382654D01*
X156661341Y-136350620D01*
X156669210Y-136319206D01*
X156680120Y-136288714D01*
X156693966Y-136259439D01*
X156710615Y-136231662D01*
X156729907Y-136205650D01*
X156751655Y-136181655D01*
X156775650Y-136159907D01*
X156801662Y-136140615D01*
X156829439Y-136123966D01*
X156858714Y-136110120D01*
X156889206Y-136099210D01*
X156920620Y-136091341D01*
X156952654Y-136086589D01*
X156985000Y-136085000D01*
X157975000Y-136085000D01*
X158007346Y-136086589D01*
X158007346Y-136086589D01*
G37*
D20*
X157480000Y-137160000D03*
D13*
G36*
X155207346Y-136086589D02*
X155239380Y-136091341D01*
X155270794Y-136099210D01*
X155301286Y-136110120D01*
X155330561Y-136123966D01*
X155358338Y-136140615D01*
X155384350Y-136159907D01*
X155408345Y-136181655D01*
X155430093Y-136205650D01*
X155449385Y-136231662D01*
X155466034Y-136259439D01*
X155479880Y-136288714D01*
X155490790Y-136319206D01*
X155498659Y-136350620D01*
X155503411Y-136382654D01*
X155505000Y-136415000D01*
X155505000Y-137905000D01*
X155503411Y-137937346D01*
X155498659Y-137969380D01*
X155490790Y-138000794D01*
X155479880Y-138031286D01*
X155466034Y-138060561D01*
X155449385Y-138088338D01*
X155430093Y-138114350D01*
X155408345Y-138138345D01*
X155384350Y-138160093D01*
X155358338Y-138179385D01*
X155330561Y-138196034D01*
X155301286Y-138209880D01*
X155270794Y-138220790D01*
X155239380Y-138228659D01*
X155207346Y-138233411D01*
X155175000Y-138235000D01*
X154185000Y-138235000D01*
X154152654Y-138233411D01*
X154120620Y-138228659D01*
X154089206Y-138220790D01*
X154058714Y-138209880D01*
X154029439Y-138196034D01*
X154001662Y-138179385D01*
X153975650Y-138160093D01*
X153951655Y-138138345D01*
X153929907Y-138114350D01*
X153910615Y-138088338D01*
X153893966Y-138060561D01*
X153880120Y-138031286D01*
X153869210Y-138000794D01*
X153861341Y-137969380D01*
X153856589Y-137937346D01*
X153855000Y-137905000D01*
X153855000Y-136415000D01*
X153856589Y-136382654D01*
X153861341Y-136350620D01*
X153869210Y-136319206D01*
X153880120Y-136288714D01*
X153893966Y-136259439D01*
X153910615Y-136231662D01*
X153929907Y-136205650D01*
X153951655Y-136181655D01*
X153975650Y-136159907D01*
X154001662Y-136140615D01*
X154029439Y-136123966D01*
X154058714Y-136110120D01*
X154089206Y-136099210D01*
X154120620Y-136091341D01*
X154152654Y-136086589D01*
X154185000Y-136085000D01*
X155175000Y-136085000D01*
X155207346Y-136086589D01*
X155207346Y-136086589D01*
G37*
D20*
X154680000Y-137160000D03*
G04 #@! TD*
D13*
G04 #@! TO.C,R2*
G36*
X159099993Y-122516535D02*
X159130935Y-122521125D01*
X159161278Y-122528725D01*
X159190730Y-122539263D01*
X159219008Y-122552638D01*
X159245838Y-122568719D01*
X159270963Y-122587353D01*
X159294140Y-122608360D01*
X159315147Y-122631537D01*
X159333781Y-122656662D01*
X159349862Y-122683492D01*
X159363237Y-122711770D01*
X159373775Y-122741222D01*
X159381375Y-122771565D01*
X159385965Y-122802507D01*
X159387500Y-122833750D01*
X159387500Y-123546250D01*
X159385965Y-123577493D01*
X159381375Y-123608435D01*
X159373775Y-123638778D01*
X159363237Y-123668230D01*
X159349862Y-123696508D01*
X159333781Y-123723338D01*
X159315147Y-123748463D01*
X159294140Y-123771640D01*
X159270963Y-123792647D01*
X159245838Y-123811281D01*
X159219008Y-123827362D01*
X159190730Y-123840737D01*
X159161278Y-123851275D01*
X159130935Y-123858875D01*
X159099993Y-123863465D01*
X159068750Y-123865000D01*
X158431250Y-123865000D01*
X158400007Y-123863465D01*
X158369065Y-123858875D01*
X158338722Y-123851275D01*
X158309270Y-123840737D01*
X158280992Y-123827362D01*
X158254162Y-123811281D01*
X158229037Y-123792647D01*
X158205860Y-123771640D01*
X158184853Y-123748463D01*
X158166219Y-123723338D01*
X158150138Y-123696508D01*
X158136763Y-123668230D01*
X158126225Y-123638778D01*
X158118625Y-123608435D01*
X158114035Y-123577493D01*
X158112500Y-123546250D01*
X158112500Y-122833750D01*
X158114035Y-122802507D01*
X158118625Y-122771565D01*
X158126225Y-122741222D01*
X158136763Y-122711770D01*
X158150138Y-122683492D01*
X158166219Y-122656662D01*
X158184853Y-122631537D01*
X158205860Y-122608360D01*
X158229037Y-122587353D01*
X158254162Y-122568719D01*
X158280992Y-122552638D01*
X158309270Y-122539263D01*
X158338722Y-122528725D01*
X158369065Y-122521125D01*
X158400007Y-122516535D01*
X158431250Y-122515000D01*
X159068750Y-122515000D01*
X159099993Y-122516535D01*
X159099993Y-122516535D01*
G37*
D17*
X158750000Y-123190000D03*
D13*
G36*
X160674993Y-122516535D02*
X160705935Y-122521125D01*
X160736278Y-122528725D01*
X160765730Y-122539263D01*
X160794008Y-122552638D01*
X160820838Y-122568719D01*
X160845963Y-122587353D01*
X160869140Y-122608360D01*
X160890147Y-122631537D01*
X160908781Y-122656662D01*
X160924862Y-122683492D01*
X160938237Y-122711770D01*
X160948775Y-122741222D01*
X160956375Y-122771565D01*
X160960965Y-122802507D01*
X160962500Y-122833750D01*
X160962500Y-123546250D01*
X160960965Y-123577493D01*
X160956375Y-123608435D01*
X160948775Y-123638778D01*
X160938237Y-123668230D01*
X160924862Y-123696508D01*
X160908781Y-123723338D01*
X160890147Y-123748463D01*
X160869140Y-123771640D01*
X160845963Y-123792647D01*
X160820838Y-123811281D01*
X160794008Y-123827362D01*
X160765730Y-123840737D01*
X160736278Y-123851275D01*
X160705935Y-123858875D01*
X160674993Y-123863465D01*
X160643750Y-123865000D01*
X160006250Y-123865000D01*
X159975007Y-123863465D01*
X159944065Y-123858875D01*
X159913722Y-123851275D01*
X159884270Y-123840737D01*
X159855992Y-123827362D01*
X159829162Y-123811281D01*
X159804037Y-123792647D01*
X159780860Y-123771640D01*
X159759853Y-123748463D01*
X159741219Y-123723338D01*
X159725138Y-123696508D01*
X159711763Y-123668230D01*
X159701225Y-123638778D01*
X159693625Y-123608435D01*
X159689035Y-123577493D01*
X159687500Y-123546250D01*
X159687500Y-122833750D01*
X159689035Y-122802507D01*
X159693625Y-122771565D01*
X159701225Y-122741222D01*
X159711763Y-122711770D01*
X159725138Y-122683492D01*
X159741219Y-122656662D01*
X159759853Y-122631537D01*
X159780860Y-122608360D01*
X159804037Y-122587353D01*
X159829162Y-122568719D01*
X159855992Y-122552638D01*
X159884270Y-122539263D01*
X159913722Y-122528725D01*
X159944065Y-122521125D01*
X159975007Y-122516535D01*
X160006250Y-122515000D01*
X160643750Y-122515000D01*
X160674993Y-122516535D01*
X160674993Y-122516535D01*
G37*
D17*
X160325000Y-123190000D03*
G04 #@! TD*
D13*
G04 #@! TO.C,R3*
G36*
X150247493Y-129691535D02*
X150278435Y-129696125D01*
X150308778Y-129703725D01*
X150338230Y-129714263D01*
X150366508Y-129727638D01*
X150393338Y-129743719D01*
X150418463Y-129762353D01*
X150441640Y-129783360D01*
X150462647Y-129806537D01*
X150481281Y-129831662D01*
X150497362Y-129858492D01*
X150510737Y-129886770D01*
X150521275Y-129916222D01*
X150528875Y-129946565D01*
X150533465Y-129977507D01*
X150535000Y-130008750D01*
X150535000Y-130646250D01*
X150533465Y-130677493D01*
X150528875Y-130708435D01*
X150521275Y-130738778D01*
X150510737Y-130768230D01*
X150497362Y-130796508D01*
X150481281Y-130823338D01*
X150462647Y-130848463D01*
X150441640Y-130871640D01*
X150418463Y-130892647D01*
X150393338Y-130911281D01*
X150366508Y-130927362D01*
X150338230Y-130940737D01*
X150308778Y-130951275D01*
X150278435Y-130958875D01*
X150247493Y-130963465D01*
X150216250Y-130965000D01*
X149503750Y-130965000D01*
X149472507Y-130963465D01*
X149441565Y-130958875D01*
X149411222Y-130951275D01*
X149381770Y-130940737D01*
X149353492Y-130927362D01*
X149326662Y-130911281D01*
X149301537Y-130892647D01*
X149278360Y-130871640D01*
X149257353Y-130848463D01*
X149238719Y-130823338D01*
X149222638Y-130796508D01*
X149209263Y-130768230D01*
X149198725Y-130738778D01*
X149191125Y-130708435D01*
X149186535Y-130677493D01*
X149185000Y-130646250D01*
X149185000Y-130008750D01*
X149186535Y-129977507D01*
X149191125Y-129946565D01*
X149198725Y-129916222D01*
X149209263Y-129886770D01*
X149222638Y-129858492D01*
X149238719Y-129831662D01*
X149257353Y-129806537D01*
X149278360Y-129783360D01*
X149301537Y-129762353D01*
X149326662Y-129743719D01*
X149353492Y-129727638D01*
X149381770Y-129714263D01*
X149411222Y-129703725D01*
X149441565Y-129696125D01*
X149472507Y-129691535D01*
X149503750Y-129690000D01*
X150216250Y-129690000D01*
X150247493Y-129691535D01*
X150247493Y-129691535D01*
G37*
D17*
X149860000Y-130327500D03*
D13*
G36*
X150247493Y-128116535D02*
X150278435Y-128121125D01*
X150308778Y-128128725D01*
X150338230Y-128139263D01*
X150366508Y-128152638D01*
X150393338Y-128168719D01*
X150418463Y-128187353D01*
X150441640Y-128208360D01*
X150462647Y-128231537D01*
X150481281Y-128256662D01*
X150497362Y-128283492D01*
X150510737Y-128311770D01*
X150521275Y-128341222D01*
X150528875Y-128371565D01*
X150533465Y-128402507D01*
X150535000Y-128433750D01*
X150535000Y-129071250D01*
X150533465Y-129102493D01*
X150528875Y-129133435D01*
X150521275Y-129163778D01*
X150510737Y-129193230D01*
X150497362Y-129221508D01*
X150481281Y-129248338D01*
X150462647Y-129273463D01*
X150441640Y-129296640D01*
X150418463Y-129317647D01*
X150393338Y-129336281D01*
X150366508Y-129352362D01*
X150338230Y-129365737D01*
X150308778Y-129376275D01*
X150278435Y-129383875D01*
X150247493Y-129388465D01*
X150216250Y-129390000D01*
X149503750Y-129390000D01*
X149472507Y-129388465D01*
X149441565Y-129383875D01*
X149411222Y-129376275D01*
X149381770Y-129365737D01*
X149353492Y-129352362D01*
X149326662Y-129336281D01*
X149301537Y-129317647D01*
X149278360Y-129296640D01*
X149257353Y-129273463D01*
X149238719Y-129248338D01*
X149222638Y-129221508D01*
X149209263Y-129193230D01*
X149198725Y-129163778D01*
X149191125Y-129133435D01*
X149186535Y-129102493D01*
X149185000Y-129071250D01*
X149185000Y-128433750D01*
X149186535Y-128402507D01*
X149191125Y-128371565D01*
X149198725Y-128341222D01*
X149209263Y-128311770D01*
X149222638Y-128283492D01*
X149238719Y-128256662D01*
X149257353Y-128231537D01*
X149278360Y-128208360D01*
X149301537Y-128187353D01*
X149326662Y-128168719D01*
X149353492Y-128152638D01*
X149381770Y-128139263D01*
X149411222Y-128128725D01*
X149441565Y-128121125D01*
X149472507Y-128116535D01*
X149503750Y-128115000D01*
X150216250Y-128115000D01*
X150247493Y-128116535D01*
X150247493Y-128116535D01*
G37*
D17*
X149860000Y-128752500D03*
G04 #@! TD*
D21*
G04 #@! TO.C,U1*
X153670000Y-133350000D03*
D22*
X156210000Y-133350000D03*
X158750000Y-133350000D03*
X161290000Y-133350000D03*
X161290000Y-125730000D03*
X158750000Y-125730000D03*
X156210000Y-125730000D03*
X153670000Y-125730000D03*
G04 #@! TD*
D23*
G04 #@! TO.C,U2*
X106756200Y-124460000D03*
X144703800Y-124460000D03*
D24*
X145288000Y-130810000D03*
G04 #@! TD*
G04 #@! TO.C,U3*
X145288000Y-111760000D03*
D23*
X144703800Y-105410000D03*
X106756200Y-105410000D03*
G04 #@! TD*
G04 #@! TO.C,U4*
X106756200Y-143510000D03*
X144703800Y-143510000D03*
D24*
X145288000Y-149860000D03*
G04 #@! TD*
D18*
G04 #@! TO.C,J3*
X161290000Y-109220000D03*
D19*
X161290000Y-111760000D03*
G04 #@! TD*
M02*
