G04 #@! TF.GenerationSoftware,KiCad,Pcbnew,5.0.0+dfsg1-2*
G04 #@! TF.CreationDate,2019-06-02T14:02:43-05:00*
G04 #@! TF.ProjectId,scope-current-shunt,73636F70652D63757272656E742D7368,rev?*
G04 #@! TF.SameCoordinates,Original*
G04 #@! TF.FileFunction,Copper,L1,Top,Signal*
G04 #@! TF.FilePolarity,Positive*
%FSLAX46Y46*%
G04 Gerber Fmt 4.6, Leading zero omitted, Abs format (unit mm)*
G04 Created by KiCad (PCBNEW 5.0.0+dfsg1-2) date Sun Jun  2 14:02:43 2019*
%MOMM*%
%LPD*%
G01*
G04 APERTURE LIST*
G04 #@! TA.AperFunction,Conductor*
%ADD10C,0.100000*%
G04 #@! TD*
G04 #@! TA.AperFunction,SMDPad,CuDef*
%ADD11C,0.875000*%
G04 #@! TD*
G04 #@! TA.AperFunction,ComponentPad*
%ADD12R,1.700000X1.700000*%
G04 #@! TD*
G04 #@! TA.AperFunction,ComponentPad*
%ADD13O,1.700000X1.700000*%
G04 #@! TD*
G04 #@! TA.AperFunction,SMDPad,CuDef*
%ADD14C,1.250000*%
G04 #@! TD*
G04 #@! TA.AperFunction,ComponentPad*
%ADD15R,1.676400X1.676400*%
G04 #@! TD*
G04 #@! TA.AperFunction,ComponentPad*
%ADD16C,1.676400*%
G04 #@! TD*
G04 #@! TA.AperFunction,ComponentPad*
%ADD17R,2.540000X2.540000*%
G04 #@! TD*
G04 #@! TA.AperFunction,ViaPad*
%ADD18C,0.685800*%
G04 #@! TD*
G04 #@! TA.AperFunction,Conductor*
%ADD19C,0.304800*%
G04 #@! TD*
G04 #@! TA.AperFunction,Conductor*
%ADD20C,0.254000*%
G04 #@! TD*
G04 APERTURE END LIST*
D10*
G04 #@! TO.N,V+*
G04 #@! TO.C,C1*
G36*
X156450191Y-122716053D02*
X156471426Y-122719203D01*
X156492250Y-122724419D01*
X156512462Y-122731651D01*
X156531868Y-122740830D01*
X156550281Y-122751866D01*
X156567524Y-122764654D01*
X156583430Y-122779070D01*
X156597846Y-122794976D01*
X156610634Y-122812219D01*
X156621670Y-122830632D01*
X156630849Y-122850038D01*
X156638081Y-122870250D01*
X156643297Y-122891074D01*
X156646447Y-122912309D01*
X156647500Y-122933750D01*
X156647500Y-123446250D01*
X156646447Y-123467691D01*
X156643297Y-123488926D01*
X156638081Y-123509750D01*
X156630849Y-123529962D01*
X156621670Y-123549368D01*
X156610634Y-123567781D01*
X156597846Y-123585024D01*
X156583430Y-123600930D01*
X156567524Y-123615346D01*
X156550281Y-123628134D01*
X156531868Y-123639170D01*
X156512462Y-123648349D01*
X156492250Y-123655581D01*
X156471426Y-123660797D01*
X156450191Y-123663947D01*
X156428750Y-123665000D01*
X155991250Y-123665000D01*
X155969809Y-123663947D01*
X155948574Y-123660797D01*
X155927750Y-123655581D01*
X155907538Y-123648349D01*
X155888132Y-123639170D01*
X155869719Y-123628134D01*
X155852476Y-123615346D01*
X155836570Y-123600930D01*
X155822154Y-123585024D01*
X155809366Y-123567781D01*
X155798330Y-123549368D01*
X155789151Y-123529962D01*
X155781919Y-123509750D01*
X155776703Y-123488926D01*
X155773553Y-123467691D01*
X155772500Y-123446250D01*
X155772500Y-122933750D01*
X155773553Y-122912309D01*
X155776703Y-122891074D01*
X155781919Y-122870250D01*
X155789151Y-122850038D01*
X155798330Y-122830632D01*
X155809366Y-122812219D01*
X155822154Y-122794976D01*
X155836570Y-122779070D01*
X155852476Y-122764654D01*
X155869719Y-122751866D01*
X155888132Y-122740830D01*
X155907538Y-122731651D01*
X155927750Y-122724419D01*
X155948574Y-122719203D01*
X155969809Y-122716053D01*
X155991250Y-122715000D01*
X156428750Y-122715000D01*
X156450191Y-122716053D01*
X156450191Y-122716053D01*
G37*
D11*
G04 #@! TD*
G04 #@! TO.P,C1,1*
G04 #@! TO.N,V+*
X156210000Y-123190000D03*
D10*
G04 #@! TO.N,GND*
G04 #@! TO.C,C1*
G36*
X154875191Y-122716053D02*
X154896426Y-122719203D01*
X154917250Y-122724419D01*
X154937462Y-122731651D01*
X154956868Y-122740830D01*
X154975281Y-122751866D01*
X154992524Y-122764654D01*
X155008430Y-122779070D01*
X155022846Y-122794976D01*
X155035634Y-122812219D01*
X155046670Y-122830632D01*
X155055849Y-122850038D01*
X155063081Y-122870250D01*
X155068297Y-122891074D01*
X155071447Y-122912309D01*
X155072500Y-122933750D01*
X155072500Y-123446250D01*
X155071447Y-123467691D01*
X155068297Y-123488926D01*
X155063081Y-123509750D01*
X155055849Y-123529962D01*
X155046670Y-123549368D01*
X155035634Y-123567781D01*
X155022846Y-123585024D01*
X155008430Y-123600930D01*
X154992524Y-123615346D01*
X154975281Y-123628134D01*
X154956868Y-123639170D01*
X154937462Y-123648349D01*
X154917250Y-123655581D01*
X154896426Y-123660797D01*
X154875191Y-123663947D01*
X154853750Y-123665000D01*
X154416250Y-123665000D01*
X154394809Y-123663947D01*
X154373574Y-123660797D01*
X154352750Y-123655581D01*
X154332538Y-123648349D01*
X154313132Y-123639170D01*
X154294719Y-123628134D01*
X154277476Y-123615346D01*
X154261570Y-123600930D01*
X154247154Y-123585024D01*
X154234366Y-123567781D01*
X154223330Y-123549368D01*
X154214151Y-123529962D01*
X154206919Y-123509750D01*
X154201703Y-123488926D01*
X154198553Y-123467691D01*
X154197500Y-123446250D01*
X154197500Y-122933750D01*
X154198553Y-122912309D01*
X154201703Y-122891074D01*
X154206919Y-122870250D01*
X154214151Y-122850038D01*
X154223330Y-122830632D01*
X154234366Y-122812219D01*
X154247154Y-122794976D01*
X154261570Y-122779070D01*
X154277476Y-122764654D01*
X154294719Y-122751866D01*
X154313132Y-122740830D01*
X154332538Y-122731651D01*
X154352750Y-122724419D01*
X154373574Y-122719203D01*
X154394809Y-122716053D01*
X154416250Y-122715000D01*
X154853750Y-122715000D01*
X154875191Y-122716053D01*
X154875191Y-122716053D01*
G37*
D11*
G04 #@! TD*
G04 #@! TO.P,C1,2*
G04 #@! TO.N,GND*
X154635000Y-123190000D03*
D10*
G04 #@! TO.N,GND*
G04 #@! TO.C,C2*
G36*
X161567691Y-136393553D02*
X161588926Y-136396703D01*
X161609750Y-136401919D01*
X161629962Y-136409151D01*
X161649368Y-136418330D01*
X161667781Y-136429366D01*
X161685024Y-136442154D01*
X161700930Y-136456570D01*
X161715346Y-136472476D01*
X161728134Y-136489719D01*
X161739170Y-136508132D01*
X161748349Y-136527538D01*
X161755581Y-136547750D01*
X161760797Y-136568574D01*
X161763947Y-136589809D01*
X161765000Y-136611250D01*
X161765000Y-137048750D01*
X161763947Y-137070191D01*
X161760797Y-137091426D01*
X161755581Y-137112250D01*
X161748349Y-137132462D01*
X161739170Y-137151868D01*
X161728134Y-137170281D01*
X161715346Y-137187524D01*
X161700930Y-137203430D01*
X161685024Y-137217846D01*
X161667781Y-137230634D01*
X161649368Y-137241670D01*
X161629962Y-137250849D01*
X161609750Y-137258081D01*
X161588926Y-137263297D01*
X161567691Y-137266447D01*
X161546250Y-137267500D01*
X161033750Y-137267500D01*
X161012309Y-137266447D01*
X160991074Y-137263297D01*
X160970250Y-137258081D01*
X160950038Y-137250849D01*
X160930632Y-137241670D01*
X160912219Y-137230634D01*
X160894976Y-137217846D01*
X160879070Y-137203430D01*
X160864654Y-137187524D01*
X160851866Y-137170281D01*
X160840830Y-137151868D01*
X160831651Y-137132462D01*
X160824419Y-137112250D01*
X160819203Y-137091426D01*
X160816053Y-137070191D01*
X160815000Y-137048750D01*
X160815000Y-136611250D01*
X160816053Y-136589809D01*
X160819203Y-136568574D01*
X160824419Y-136547750D01*
X160831651Y-136527538D01*
X160840830Y-136508132D01*
X160851866Y-136489719D01*
X160864654Y-136472476D01*
X160879070Y-136456570D01*
X160894976Y-136442154D01*
X160912219Y-136429366D01*
X160930632Y-136418330D01*
X160950038Y-136409151D01*
X160970250Y-136401919D01*
X160991074Y-136396703D01*
X161012309Y-136393553D01*
X161033750Y-136392500D01*
X161546250Y-136392500D01*
X161567691Y-136393553D01*
X161567691Y-136393553D01*
G37*
D11*
G04 #@! TD*
G04 #@! TO.P,C2,2*
G04 #@! TO.N,GND*
X161290000Y-136830000D03*
D10*
G04 #@! TO.N,V-*
G04 #@! TO.C,C2*
G36*
X161567691Y-134818553D02*
X161588926Y-134821703D01*
X161609750Y-134826919D01*
X161629962Y-134834151D01*
X161649368Y-134843330D01*
X161667781Y-134854366D01*
X161685024Y-134867154D01*
X161700930Y-134881570D01*
X161715346Y-134897476D01*
X161728134Y-134914719D01*
X161739170Y-134933132D01*
X161748349Y-134952538D01*
X161755581Y-134972750D01*
X161760797Y-134993574D01*
X161763947Y-135014809D01*
X161765000Y-135036250D01*
X161765000Y-135473750D01*
X161763947Y-135495191D01*
X161760797Y-135516426D01*
X161755581Y-135537250D01*
X161748349Y-135557462D01*
X161739170Y-135576868D01*
X161728134Y-135595281D01*
X161715346Y-135612524D01*
X161700930Y-135628430D01*
X161685024Y-135642846D01*
X161667781Y-135655634D01*
X161649368Y-135666670D01*
X161629962Y-135675849D01*
X161609750Y-135683081D01*
X161588926Y-135688297D01*
X161567691Y-135691447D01*
X161546250Y-135692500D01*
X161033750Y-135692500D01*
X161012309Y-135691447D01*
X160991074Y-135688297D01*
X160970250Y-135683081D01*
X160950038Y-135675849D01*
X160930632Y-135666670D01*
X160912219Y-135655634D01*
X160894976Y-135642846D01*
X160879070Y-135628430D01*
X160864654Y-135612524D01*
X160851866Y-135595281D01*
X160840830Y-135576868D01*
X160831651Y-135557462D01*
X160824419Y-135537250D01*
X160819203Y-135516426D01*
X160816053Y-135495191D01*
X160815000Y-135473750D01*
X160815000Y-135036250D01*
X160816053Y-135014809D01*
X160819203Y-134993574D01*
X160824419Y-134972750D01*
X160831651Y-134952538D01*
X160840830Y-134933132D01*
X160851866Y-134914719D01*
X160864654Y-134897476D01*
X160879070Y-134881570D01*
X160894976Y-134867154D01*
X160912219Y-134854366D01*
X160930632Y-134843330D01*
X160950038Y-134834151D01*
X160970250Y-134826919D01*
X160991074Y-134821703D01*
X161012309Y-134818553D01*
X161033750Y-134817500D01*
X161546250Y-134817500D01*
X161567691Y-134818553D01*
X161567691Y-134818553D01*
G37*
D11*
G04 #@! TD*
G04 #@! TO.P,C2,1*
G04 #@! TO.N,V-*
X161290000Y-135255000D03*
D12*
G04 #@! TO.P,J1,1*
G04 #@! TO.N,VDD*
X154940000Y-147320000D03*
D13*
G04 #@! TO.P,J1,2*
G04 #@! TO.N,N$3*
X154940000Y-144780000D03*
G04 #@! TD*
G04 #@! TO.P,J2,2*
G04 #@! TO.N,GND*
X157480000Y-97790000D03*
D12*
G04 #@! TO.P,J2,1*
G04 #@! TO.N,Vo*
X154940000Y-97790000D03*
G04 #@! TD*
D10*
G04 #@! TO.N,N$3*
G04 #@! TO.C,R1*
G36*
X157879504Y-136286204D02*
X157903773Y-136289804D01*
X157927571Y-136295765D01*
X157950671Y-136304030D01*
X157972849Y-136314520D01*
X157993893Y-136327133D01*
X158013598Y-136341747D01*
X158031777Y-136358223D01*
X158048253Y-136376402D01*
X158062867Y-136396107D01*
X158075480Y-136417151D01*
X158085970Y-136439329D01*
X158094235Y-136462429D01*
X158100196Y-136486227D01*
X158103796Y-136510496D01*
X158105000Y-136535000D01*
X158105000Y-137785000D01*
X158103796Y-137809504D01*
X158100196Y-137833773D01*
X158094235Y-137857571D01*
X158085970Y-137880671D01*
X158075480Y-137902849D01*
X158062867Y-137923893D01*
X158048253Y-137943598D01*
X158031777Y-137961777D01*
X158013598Y-137978253D01*
X157993893Y-137992867D01*
X157972849Y-138005480D01*
X157950671Y-138015970D01*
X157927571Y-138024235D01*
X157903773Y-138030196D01*
X157879504Y-138033796D01*
X157855000Y-138035000D01*
X157105000Y-138035000D01*
X157080496Y-138033796D01*
X157056227Y-138030196D01*
X157032429Y-138024235D01*
X157009329Y-138015970D01*
X156987151Y-138005480D01*
X156966107Y-137992867D01*
X156946402Y-137978253D01*
X156928223Y-137961777D01*
X156911747Y-137943598D01*
X156897133Y-137923893D01*
X156884520Y-137902849D01*
X156874030Y-137880671D01*
X156865765Y-137857571D01*
X156859804Y-137833773D01*
X156856204Y-137809504D01*
X156855000Y-137785000D01*
X156855000Y-136535000D01*
X156856204Y-136510496D01*
X156859804Y-136486227D01*
X156865765Y-136462429D01*
X156874030Y-136439329D01*
X156884520Y-136417151D01*
X156897133Y-136396107D01*
X156911747Y-136376402D01*
X156928223Y-136358223D01*
X156946402Y-136341747D01*
X156966107Y-136327133D01*
X156987151Y-136314520D01*
X157009329Y-136304030D01*
X157032429Y-136295765D01*
X157056227Y-136289804D01*
X157080496Y-136286204D01*
X157105000Y-136285000D01*
X157855000Y-136285000D01*
X157879504Y-136286204D01*
X157879504Y-136286204D01*
G37*
D14*
G04 #@! TD*
G04 #@! TO.P,R1,1*
G04 #@! TO.N,N$3*
X157480000Y-137160000D03*
D10*
G04 #@! TO.N,GND*
G04 #@! TO.C,R1*
G36*
X155079504Y-136286204D02*
X155103773Y-136289804D01*
X155127571Y-136295765D01*
X155150671Y-136304030D01*
X155172849Y-136314520D01*
X155193893Y-136327133D01*
X155213598Y-136341747D01*
X155231777Y-136358223D01*
X155248253Y-136376402D01*
X155262867Y-136396107D01*
X155275480Y-136417151D01*
X155285970Y-136439329D01*
X155294235Y-136462429D01*
X155300196Y-136486227D01*
X155303796Y-136510496D01*
X155305000Y-136535000D01*
X155305000Y-137785000D01*
X155303796Y-137809504D01*
X155300196Y-137833773D01*
X155294235Y-137857571D01*
X155285970Y-137880671D01*
X155275480Y-137902849D01*
X155262867Y-137923893D01*
X155248253Y-137943598D01*
X155231777Y-137961777D01*
X155213598Y-137978253D01*
X155193893Y-137992867D01*
X155172849Y-138005480D01*
X155150671Y-138015970D01*
X155127571Y-138024235D01*
X155103773Y-138030196D01*
X155079504Y-138033796D01*
X155055000Y-138035000D01*
X154305000Y-138035000D01*
X154280496Y-138033796D01*
X154256227Y-138030196D01*
X154232429Y-138024235D01*
X154209329Y-138015970D01*
X154187151Y-138005480D01*
X154166107Y-137992867D01*
X154146402Y-137978253D01*
X154128223Y-137961777D01*
X154111747Y-137943598D01*
X154097133Y-137923893D01*
X154084520Y-137902849D01*
X154074030Y-137880671D01*
X154065765Y-137857571D01*
X154059804Y-137833773D01*
X154056204Y-137809504D01*
X154055000Y-137785000D01*
X154055000Y-136535000D01*
X154056204Y-136510496D01*
X154059804Y-136486227D01*
X154065765Y-136462429D01*
X154074030Y-136439329D01*
X154084520Y-136417151D01*
X154097133Y-136396107D01*
X154111747Y-136376402D01*
X154128223Y-136358223D01*
X154146402Y-136341747D01*
X154166107Y-136327133D01*
X154187151Y-136314520D01*
X154209329Y-136304030D01*
X154232429Y-136295765D01*
X154256227Y-136289804D01*
X154280496Y-136286204D01*
X154305000Y-136285000D01*
X155055000Y-136285000D01*
X155079504Y-136286204D01*
X155079504Y-136286204D01*
G37*
D14*
G04 #@! TD*
G04 #@! TO.P,R1,2*
G04 #@! TO.N,GND*
X154680000Y-137160000D03*
D10*
G04 #@! TO.N,Vo*
G04 #@! TO.C,R2*
G36*
X158990191Y-122716053D02*
X159011426Y-122719203D01*
X159032250Y-122724419D01*
X159052462Y-122731651D01*
X159071868Y-122740830D01*
X159090281Y-122751866D01*
X159107524Y-122764654D01*
X159123430Y-122779070D01*
X159137846Y-122794976D01*
X159150634Y-122812219D01*
X159161670Y-122830632D01*
X159170849Y-122850038D01*
X159178081Y-122870250D01*
X159183297Y-122891074D01*
X159186447Y-122912309D01*
X159187500Y-122933750D01*
X159187500Y-123446250D01*
X159186447Y-123467691D01*
X159183297Y-123488926D01*
X159178081Y-123509750D01*
X159170849Y-123529962D01*
X159161670Y-123549368D01*
X159150634Y-123567781D01*
X159137846Y-123585024D01*
X159123430Y-123600930D01*
X159107524Y-123615346D01*
X159090281Y-123628134D01*
X159071868Y-123639170D01*
X159052462Y-123648349D01*
X159032250Y-123655581D01*
X159011426Y-123660797D01*
X158990191Y-123663947D01*
X158968750Y-123665000D01*
X158531250Y-123665000D01*
X158509809Y-123663947D01*
X158488574Y-123660797D01*
X158467750Y-123655581D01*
X158447538Y-123648349D01*
X158428132Y-123639170D01*
X158409719Y-123628134D01*
X158392476Y-123615346D01*
X158376570Y-123600930D01*
X158362154Y-123585024D01*
X158349366Y-123567781D01*
X158338330Y-123549368D01*
X158329151Y-123529962D01*
X158321919Y-123509750D01*
X158316703Y-123488926D01*
X158313553Y-123467691D01*
X158312500Y-123446250D01*
X158312500Y-122933750D01*
X158313553Y-122912309D01*
X158316703Y-122891074D01*
X158321919Y-122870250D01*
X158329151Y-122850038D01*
X158338330Y-122830632D01*
X158349366Y-122812219D01*
X158362154Y-122794976D01*
X158376570Y-122779070D01*
X158392476Y-122764654D01*
X158409719Y-122751866D01*
X158428132Y-122740830D01*
X158447538Y-122731651D01*
X158467750Y-122724419D01*
X158488574Y-122719203D01*
X158509809Y-122716053D01*
X158531250Y-122715000D01*
X158968750Y-122715000D01*
X158990191Y-122716053D01*
X158990191Y-122716053D01*
G37*
D11*
G04 #@! TD*
G04 #@! TO.P,R2,1*
G04 #@! TO.N,Vo*
X158750000Y-123190000D03*
D10*
G04 #@! TO.N,GND*
G04 #@! TO.C,R2*
G36*
X160565191Y-122716053D02*
X160586426Y-122719203D01*
X160607250Y-122724419D01*
X160627462Y-122731651D01*
X160646868Y-122740830D01*
X160665281Y-122751866D01*
X160682524Y-122764654D01*
X160698430Y-122779070D01*
X160712846Y-122794976D01*
X160725634Y-122812219D01*
X160736670Y-122830632D01*
X160745849Y-122850038D01*
X160753081Y-122870250D01*
X160758297Y-122891074D01*
X160761447Y-122912309D01*
X160762500Y-122933750D01*
X160762500Y-123446250D01*
X160761447Y-123467691D01*
X160758297Y-123488926D01*
X160753081Y-123509750D01*
X160745849Y-123529962D01*
X160736670Y-123549368D01*
X160725634Y-123567781D01*
X160712846Y-123585024D01*
X160698430Y-123600930D01*
X160682524Y-123615346D01*
X160665281Y-123628134D01*
X160646868Y-123639170D01*
X160627462Y-123648349D01*
X160607250Y-123655581D01*
X160586426Y-123660797D01*
X160565191Y-123663947D01*
X160543750Y-123665000D01*
X160106250Y-123665000D01*
X160084809Y-123663947D01*
X160063574Y-123660797D01*
X160042750Y-123655581D01*
X160022538Y-123648349D01*
X160003132Y-123639170D01*
X159984719Y-123628134D01*
X159967476Y-123615346D01*
X159951570Y-123600930D01*
X159937154Y-123585024D01*
X159924366Y-123567781D01*
X159913330Y-123549368D01*
X159904151Y-123529962D01*
X159896919Y-123509750D01*
X159891703Y-123488926D01*
X159888553Y-123467691D01*
X159887500Y-123446250D01*
X159887500Y-122933750D01*
X159888553Y-122912309D01*
X159891703Y-122891074D01*
X159896919Y-122870250D01*
X159904151Y-122850038D01*
X159913330Y-122830632D01*
X159924366Y-122812219D01*
X159937154Y-122794976D01*
X159951570Y-122779070D01*
X159967476Y-122764654D01*
X159984719Y-122751866D01*
X160003132Y-122740830D01*
X160022538Y-122731651D01*
X160042750Y-122724419D01*
X160063574Y-122719203D01*
X160084809Y-122716053D01*
X160106250Y-122715000D01*
X160543750Y-122715000D01*
X160565191Y-122716053D01*
X160565191Y-122716053D01*
G37*
D11*
G04 #@! TD*
G04 #@! TO.P,R2,2*
G04 #@! TO.N,GND*
X160325000Y-123190000D03*
D10*
G04 #@! TO.N,N$2*
G04 #@! TO.C,R3*
G36*
X150137691Y-129891053D02*
X150158926Y-129894203D01*
X150179750Y-129899419D01*
X150199962Y-129906651D01*
X150219368Y-129915830D01*
X150237781Y-129926866D01*
X150255024Y-129939654D01*
X150270930Y-129954070D01*
X150285346Y-129969976D01*
X150298134Y-129987219D01*
X150309170Y-130005632D01*
X150318349Y-130025038D01*
X150325581Y-130045250D01*
X150330797Y-130066074D01*
X150333947Y-130087309D01*
X150335000Y-130108750D01*
X150335000Y-130546250D01*
X150333947Y-130567691D01*
X150330797Y-130588926D01*
X150325581Y-130609750D01*
X150318349Y-130629962D01*
X150309170Y-130649368D01*
X150298134Y-130667781D01*
X150285346Y-130685024D01*
X150270930Y-130700930D01*
X150255024Y-130715346D01*
X150237781Y-130728134D01*
X150219368Y-130739170D01*
X150199962Y-130748349D01*
X150179750Y-130755581D01*
X150158926Y-130760797D01*
X150137691Y-130763947D01*
X150116250Y-130765000D01*
X149603750Y-130765000D01*
X149582309Y-130763947D01*
X149561074Y-130760797D01*
X149540250Y-130755581D01*
X149520038Y-130748349D01*
X149500632Y-130739170D01*
X149482219Y-130728134D01*
X149464976Y-130715346D01*
X149449070Y-130700930D01*
X149434654Y-130685024D01*
X149421866Y-130667781D01*
X149410830Y-130649368D01*
X149401651Y-130629962D01*
X149394419Y-130609750D01*
X149389203Y-130588926D01*
X149386053Y-130567691D01*
X149385000Y-130546250D01*
X149385000Y-130108750D01*
X149386053Y-130087309D01*
X149389203Y-130066074D01*
X149394419Y-130045250D01*
X149401651Y-130025038D01*
X149410830Y-130005632D01*
X149421866Y-129987219D01*
X149434654Y-129969976D01*
X149449070Y-129954070D01*
X149464976Y-129939654D01*
X149482219Y-129926866D01*
X149500632Y-129915830D01*
X149520038Y-129906651D01*
X149540250Y-129899419D01*
X149561074Y-129894203D01*
X149582309Y-129891053D01*
X149603750Y-129890000D01*
X150116250Y-129890000D01*
X150137691Y-129891053D01*
X150137691Y-129891053D01*
G37*
D11*
G04 #@! TD*
G04 #@! TO.P,R3,2*
G04 #@! TO.N,N$2*
X149860000Y-130327500D03*
D10*
G04 #@! TO.N,N$1*
G04 #@! TO.C,R3*
G36*
X150137691Y-128316053D02*
X150158926Y-128319203D01*
X150179750Y-128324419D01*
X150199962Y-128331651D01*
X150219368Y-128340830D01*
X150237781Y-128351866D01*
X150255024Y-128364654D01*
X150270930Y-128379070D01*
X150285346Y-128394976D01*
X150298134Y-128412219D01*
X150309170Y-128430632D01*
X150318349Y-128450038D01*
X150325581Y-128470250D01*
X150330797Y-128491074D01*
X150333947Y-128512309D01*
X150335000Y-128533750D01*
X150335000Y-128971250D01*
X150333947Y-128992691D01*
X150330797Y-129013926D01*
X150325581Y-129034750D01*
X150318349Y-129054962D01*
X150309170Y-129074368D01*
X150298134Y-129092781D01*
X150285346Y-129110024D01*
X150270930Y-129125930D01*
X150255024Y-129140346D01*
X150237781Y-129153134D01*
X150219368Y-129164170D01*
X150199962Y-129173349D01*
X150179750Y-129180581D01*
X150158926Y-129185797D01*
X150137691Y-129188947D01*
X150116250Y-129190000D01*
X149603750Y-129190000D01*
X149582309Y-129188947D01*
X149561074Y-129185797D01*
X149540250Y-129180581D01*
X149520038Y-129173349D01*
X149500632Y-129164170D01*
X149482219Y-129153134D01*
X149464976Y-129140346D01*
X149449070Y-129125930D01*
X149434654Y-129110024D01*
X149421866Y-129092781D01*
X149410830Y-129074368D01*
X149401651Y-129054962D01*
X149394419Y-129034750D01*
X149389203Y-129013926D01*
X149386053Y-128992691D01*
X149385000Y-128971250D01*
X149385000Y-128533750D01*
X149386053Y-128512309D01*
X149389203Y-128491074D01*
X149394419Y-128470250D01*
X149401651Y-128450038D01*
X149410830Y-128430632D01*
X149421866Y-128412219D01*
X149434654Y-128394976D01*
X149449070Y-128379070D01*
X149464976Y-128364654D01*
X149482219Y-128351866D01*
X149500632Y-128340830D01*
X149520038Y-128331651D01*
X149540250Y-128324419D01*
X149561074Y-128319203D01*
X149582309Y-128316053D01*
X149603750Y-128315000D01*
X150116250Y-128315000D01*
X150137691Y-128316053D01*
X150137691Y-128316053D01*
G37*
D11*
G04 #@! TD*
G04 #@! TO.P,R3,1*
G04 #@! TO.N,N$1*
X149860000Y-128752500D03*
D15*
G04 #@! TO.P,U1,1*
G04 #@! TO.N,N$2*
X153670000Y-133350000D03*
D16*
G04 #@! TO.P,U1,2*
G04 #@! TO.N,GND*
X156210000Y-133350000D03*
G04 #@! TO.P,U1,3*
G04 #@! TO.N,N$3*
X158750000Y-133350000D03*
G04 #@! TO.P,U1,4*
G04 #@! TO.N,V-*
X161290000Y-133350000D03*
G04 #@! TO.P,U1,5*
G04 #@! TO.N,GND*
X161290000Y-125730000D03*
G04 #@! TO.P,U1,6*
G04 #@! TO.N,Vo*
X158750000Y-125730000D03*
G04 #@! TO.P,U1,7*
G04 #@! TO.N,V+*
X156210000Y-125730000D03*
G04 #@! TO.P,U1,8*
G04 #@! TO.N,N$1*
X153670000Y-125730000D03*
G04 #@! TD*
D17*
G04 #@! TO.P,U2,-*
G04 #@! TO.N,V-*
X106756200Y-124460000D03*
G04 #@! TO.P,U2,+*
G04 #@! TO.N,GND*
X144703800Y-124460000D03*
G04 #@! TD*
G04 #@! TO.P,U3,+*
G04 #@! TO.N,V+*
X144703800Y-105410000D03*
G04 #@! TO.P,U3,-*
G04 #@! TO.N,GND*
X106756200Y-105410000D03*
G04 #@! TD*
G04 #@! TO.P,U4,-*
G04 #@! TO.N,GND*
X106756200Y-143510000D03*
G04 #@! TO.P,U4,+*
G04 #@! TO.N,VDD*
X144703800Y-143510000D03*
G04 #@! TD*
D12*
G04 #@! TO.P,J3,1*
G04 #@! TO.N,GND*
X161290000Y-109220000D03*
D13*
G04 #@! TO.P,J3,2*
X161290000Y-111760000D03*
G04 #@! TD*
D18*
G04 #@! TO.N,V+*
X156210000Y-121285000D03*
X144703800Y-107873800D03*
G04 #@! TO.N,V-*
X159385000Y-135255000D03*
X109220000Y-124460000D03*
G04 #@! TD*
D19*
G04 #@! TO.N,V+*
X156210000Y-125730000D02*
X156210000Y-123190000D01*
X156210000Y-123190000D02*
X156210000Y-121285000D01*
X156210000Y-121285000D02*
X156210000Y-121285000D01*
X144703800Y-105410000D02*
X144703800Y-107873800D01*
X144703800Y-107873800D02*
X144703800Y-107873800D01*
G04 #@! TO.N,V-*
X161290000Y-133350000D02*
X161290000Y-135255000D01*
X161290000Y-135255000D02*
X159385000Y-135255000D01*
X159385000Y-135255000D02*
X159385000Y-135255000D01*
X106756200Y-124460000D02*
X109220000Y-124460000D01*
X109220000Y-124460000D02*
X109220000Y-124460000D01*
G04 #@! TO.N,VDD*
X153785200Y-147320000D02*
X154940000Y-147320000D01*
X146939000Y-147320000D02*
X153785200Y-147320000D01*
X144703800Y-145084800D02*
X146939000Y-147320000D01*
X144703800Y-143510000D02*
X144703800Y-145084800D01*
D20*
G04 #@! TO.N,N$3*
X157480000Y-134620000D02*
X157480000Y-137160000D01*
X158750000Y-133350000D02*
X157480000Y-134620000D01*
X157480000Y-142240000D02*
X157480000Y-137160000D01*
X154940000Y-144780000D02*
X157480000Y-142240000D01*
G04 #@! TO.N,Vo*
X158750000Y-125730000D02*
X158750000Y-123190000D01*
X158750000Y-123190000D02*
X158750000Y-120015000D01*
X154940000Y-116205000D02*
X154940000Y-97790000D01*
X158750000Y-120015000D02*
X154940000Y-116205000D01*
G04 #@! TO.N,N$2*
X151739700Y-130327500D02*
X149860000Y-130327500D01*
X153670000Y-132257800D02*
X151739700Y-130327500D01*
X153670000Y-133350000D02*
X153670000Y-132257800D01*
G04 #@! TO.N,N$1*
X150647500Y-128752500D02*
X149860000Y-128752500D01*
X153670000Y-125730000D02*
X150647500Y-128752500D01*
G04 #@! TD*
G04 #@! TO.N,GND*
G36*
X163120001Y-152960000D02*
X103580000Y-152960000D01*
X103580000Y-149607381D01*
X144018000Y-149607381D01*
X144018000Y-150112619D01*
X144211346Y-150579397D01*
X144568603Y-150936654D01*
X145035381Y-151130000D01*
X145540619Y-151130000D01*
X146007397Y-150936654D01*
X146364654Y-150579397D01*
X146558000Y-150112619D01*
X146558000Y-149607381D01*
X146364654Y-149140603D01*
X146007397Y-148783346D01*
X145540619Y-148590000D01*
X145035381Y-148590000D01*
X144568603Y-148783346D01*
X144211346Y-149140603D01*
X144018000Y-149607381D01*
X103580000Y-149607381D01*
X103580000Y-143795750D01*
X104851200Y-143795750D01*
X104851200Y-144906310D01*
X104947873Y-145139699D01*
X105126502Y-145318327D01*
X105359891Y-145415000D01*
X106470450Y-145415000D01*
X106629200Y-145256250D01*
X106629200Y-143637000D01*
X106883200Y-143637000D01*
X106883200Y-145256250D01*
X107041950Y-145415000D01*
X108152509Y-145415000D01*
X108385898Y-145318327D01*
X108564527Y-145139699D01*
X108661200Y-144906310D01*
X108661200Y-143795750D01*
X108502450Y-143637000D01*
X106883200Y-143637000D01*
X106629200Y-143637000D01*
X105009950Y-143637000D01*
X104851200Y-143795750D01*
X103580000Y-143795750D01*
X103580000Y-142113690D01*
X104851200Y-142113690D01*
X104851200Y-143224250D01*
X105009950Y-143383000D01*
X106629200Y-143383000D01*
X106629200Y-141763750D01*
X106883200Y-141763750D01*
X106883200Y-143383000D01*
X108502450Y-143383000D01*
X108661200Y-143224250D01*
X108661200Y-142240000D01*
X142786360Y-142240000D01*
X142786360Y-144780000D01*
X142835643Y-145027765D01*
X142975991Y-145237809D01*
X143186035Y-145378157D01*
X143433800Y-145427440D01*
X143985748Y-145427440D01*
X144136117Y-145652484D01*
X144201863Y-145696414D01*
X146327386Y-147821938D01*
X146371316Y-147887684D01*
X146631772Y-148061715D01*
X146861448Y-148107400D01*
X146938999Y-148122826D01*
X147016550Y-148107400D01*
X153442560Y-148107400D01*
X153442560Y-148170000D01*
X153491843Y-148417765D01*
X153632191Y-148627809D01*
X153842235Y-148768157D01*
X154090000Y-148817440D01*
X155790000Y-148817440D01*
X156037765Y-148768157D01*
X156247809Y-148627809D01*
X156388157Y-148417765D01*
X156437440Y-148170000D01*
X156437440Y-146470000D01*
X156388157Y-146222235D01*
X156247809Y-146012191D01*
X156037765Y-145871843D01*
X155992381Y-145862816D01*
X156010625Y-145850625D01*
X156338839Y-145359418D01*
X156454092Y-144780000D01*
X156381679Y-144415951D01*
X157965747Y-142831883D01*
X158029371Y-142789371D01*
X158197788Y-142537317D01*
X158242000Y-142315048D01*
X158242000Y-142315044D01*
X158256927Y-142240001D01*
X158242000Y-142164958D01*
X158242000Y-138585017D01*
X158489586Y-138419586D01*
X158684126Y-138128435D01*
X158752440Y-137785000D01*
X158752440Y-137115750D01*
X160180000Y-137115750D01*
X160180000Y-137393809D01*
X160276673Y-137627198D01*
X160455301Y-137805827D01*
X160688690Y-137902500D01*
X161004250Y-137902500D01*
X161163000Y-137743750D01*
X161163000Y-136957000D01*
X161417000Y-136957000D01*
X161417000Y-137743750D01*
X161575750Y-137902500D01*
X161891310Y-137902500D01*
X162124699Y-137805827D01*
X162303327Y-137627198D01*
X162400000Y-137393809D01*
X162400000Y-137115750D01*
X162241250Y-136957000D01*
X161417000Y-136957000D01*
X161163000Y-136957000D01*
X160338750Y-136957000D01*
X160180000Y-137115750D01*
X158752440Y-137115750D01*
X158752440Y-136535000D01*
X158684126Y-136191565D01*
X158489586Y-135900414D01*
X158242000Y-135734983D01*
X158242000Y-134935630D01*
X158384461Y-134793169D01*
X158456962Y-134823200D01*
X158505386Y-134823200D01*
X158407100Y-135060484D01*
X158407100Y-135449516D01*
X158555977Y-135808936D01*
X158831064Y-136084023D01*
X159190484Y-136232900D01*
X159579516Y-136232900D01*
X159938936Y-136084023D01*
X159980559Y-136042400D01*
X160272697Y-136042400D01*
X160180000Y-136266191D01*
X160180000Y-136544250D01*
X160338750Y-136703000D01*
X161163000Y-136703000D01*
X161163000Y-136683000D01*
X161417000Y-136683000D01*
X161417000Y-136703000D01*
X162241250Y-136703000D01*
X162400000Y-136544250D01*
X162400000Y-136266191D01*
X162303327Y-136032802D01*
X162238057Y-135967531D01*
X162346505Y-135805227D01*
X162412440Y-135473750D01*
X162412440Y-135036250D01*
X162346505Y-134704773D01*
X162215184Y-134508236D01*
X162538919Y-134184501D01*
X162763200Y-133643038D01*
X162763200Y-133056962D01*
X162538919Y-132515499D01*
X162124501Y-132101081D01*
X161583038Y-131876800D01*
X160996962Y-131876800D01*
X160455499Y-132101081D01*
X160041081Y-132515499D01*
X160020000Y-132566393D01*
X159998919Y-132515499D01*
X159584501Y-132101081D01*
X159043038Y-131876800D01*
X158456962Y-131876800D01*
X157915499Y-132101081D01*
X157501081Y-132515499D01*
X157479362Y-132567933D01*
X157245413Y-132494192D01*
X156389605Y-133350000D01*
X156403748Y-133364143D01*
X156224143Y-133543748D01*
X156210000Y-133529605D01*
X155354192Y-134385413D01*
X155433017Y-134635490D01*
X155984097Y-134834977D01*
X156569569Y-134808389D01*
X156718000Y-134746907D01*
X156718000Y-135734983D01*
X156470414Y-135900414D01*
X156275874Y-136191565D01*
X156207560Y-136535000D01*
X156207560Y-137785000D01*
X156275874Y-138128435D01*
X156470414Y-138419586D01*
X156718001Y-138585017D01*
X156718000Y-141924370D01*
X155304049Y-143338321D01*
X155086256Y-143295000D01*
X154793744Y-143295000D01*
X154360582Y-143381161D01*
X153869375Y-143709375D01*
X153541161Y-144200582D01*
X153425908Y-144780000D01*
X153541161Y-145359418D01*
X153869375Y-145850625D01*
X153887619Y-145862816D01*
X153842235Y-145871843D01*
X153632191Y-146012191D01*
X153491843Y-146222235D01*
X153442560Y-146470000D01*
X153442560Y-146532600D01*
X147265152Y-146532600D01*
X146129101Y-145396549D01*
X146221565Y-145378157D01*
X146431609Y-145237809D01*
X146571957Y-145027765D01*
X146621240Y-144780000D01*
X146621240Y-142240000D01*
X146571957Y-141992235D01*
X146431609Y-141782191D01*
X146221565Y-141641843D01*
X145973800Y-141592560D01*
X143433800Y-141592560D01*
X143186035Y-141641843D01*
X142975991Y-141782191D01*
X142835643Y-141992235D01*
X142786360Y-142240000D01*
X108661200Y-142240000D01*
X108661200Y-142113690D01*
X108564527Y-141880301D01*
X108385898Y-141701673D01*
X108152509Y-141605000D01*
X107041950Y-141605000D01*
X106883200Y-141763750D01*
X106629200Y-141763750D01*
X106470450Y-141605000D01*
X105359891Y-141605000D01*
X105126502Y-141701673D01*
X104947873Y-141880301D01*
X104851200Y-142113690D01*
X103580000Y-142113690D01*
X103580000Y-137445750D01*
X153420000Y-137445750D01*
X153420000Y-138161310D01*
X153516673Y-138394699D01*
X153695302Y-138573327D01*
X153928691Y-138670000D01*
X154394250Y-138670000D01*
X154553000Y-138511250D01*
X154553000Y-137287000D01*
X154807000Y-137287000D01*
X154807000Y-138511250D01*
X154965750Y-138670000D01*
X155431309Y-138670000D01*
X155664698Y-138573327D01*
X155843327Y-138394699D01*
X155940000Y-138161310D01*
X155940000Y-137445750D01*
X155781250Y-137287000D01*
X154807000Y-137287000D01*
X154553000Y-137287000D01*
X153578750Y-137287000D01*
X153420000Y-137445750D01*
X103580000Y-137445750D01*
X103580000Y-136158690D01*
X153420000Y-136158690D01*
X153420000Y-136874250D01*
X153578750Y-137033000D01*
X154553000Y-137033000D01*
X154553000Y-135808750D01*
X154807000Y-135808750D01*
X154807000Y-137033000D01*
X155781250Y-137033000D01*
X155940000Y-136874250D01*
X155940000Y-136158690D01*
X155843327Y-135925301D01*
X155664698Y-135746673D01*
X155431309Y-135650000D01*
X154965750Y-135650000D01*
X154807000Y-135808750D01*
X154553000Y-135808750D01*
X154394250Y-135650000D01*
X153928691Y-135650000D01*
X153695302Y-135746673D01*
X153516673Y-135925301D01*
X153420000Y-136158690D01*
X103580000Y-136158690D01*
X103580000Y-130557381D01*
X144018000Y-130557381D01*
X144018000Y-131062619D01*
X144211346Y-131529397D01*
X144568603Y-131886654D01*
X145035381Y-132080000D01*
X145540619Y-132080000D01*
X146007397Y-131886654D01*
X146364654Y-131529397D01*
X146558000Y-131062619D01*
X146558000Y-130557381D01*
X146364654Y-130090603D01*
X146007397Y-129733346D01*
X145540619Y-129540000D01*
X145035381Y-129540000D01*
X144568603Y-129733346D01*
X144211346Y-130090603D01*
X144018000Y-130557381D01*
X103580000Y-130557381D01*
X103580000Y-128533750D01*
X148737560Y-128533750D01*
X148737560Y-128971250D01*
X148803495Y-129302727D01*
X148962036Y-129540000D01*
X148803495Y-129777273D01*
X148737560Y-130108750D01*
X148737560Y-130546250D01*
X148803495Y-130877727D01*
X148991261Y-131158739D01*
X149272273Y-131346505D01*
X149603750Y-131412440D01*
X150116250Y-131412440D01*
X150447727Y-131346505D01*
X150728739Y-131158739D01*
X150775003Y-131089500D01*
X151424070Y-131089500D01*
X152382725Y-132048155D01*
X152373991Y-132053991D01*
X152233643Y-132264035D01*
X152184360Y-132511800D01*
X152184360Y-134188200D01*
X152233643Y-134435965D01*
X152373991Y-134646009D01*
X152584035Y-134786357D01*
X152831800Y-134835640D01*
X154508200Y-134835640D01*
X154755965Y-134786357D01*
X154966009Y-134646009D01*
X155106357Y-134435965D01*
X155153462Y-134199149D01*
X155174587Y-134205808D01*
X156030395Y-133350000D01*
X155174587Y-132494192D01*
X155153462Y-132500851D01*
X155116413Y-132314587D01*
X155354192Y-132314587D01*
X156210000Y-133170395D01*
X157065808Y-132314587D01*
X156986983Y-132064510D01*
X156435903Y-131865023D01*
X155850431Y-131891611D01*
X155433017Y-132064510D01*
X155354192Y-132314587D01*
X155116413Y-132314587D01*
X155106357Y-132264035D01*
X154966009Y-132053991D01*
X154755965Y-131913643D01*
X154508200Y-131864360D01*
X154323561Y-131864360D01*
X154261882Y-131772051D01*
X154219371Y-131708429D01*
X154155749Y-131665918D01*
X152331583Y-129841753D01*
X152289071Y-129778129D01*
X152037017Y-129609712D01*
X151814748Y-129565500D01*
X151814743Y-129565500D01*
X151739700Y-129550573D01*
X151664657Y-129565500D01*
X150775003Y-129565500D01*
X150757964Y-129540000D01*
X150783043Y-129502467D01*
X150944817Y-129470288D01*
X151196871Y-129301871D01*
X151239384Y-129238246D01*
X153304461Y-127173169D01*
X153376962Y-127203200D01*
X153963038Y-127203200D01*
X154504501Y-126978919D01*
X154918919Y-126564501D01*
X154940000Y-126513607D01*
X154961081Y-126564501D01*
X155375499Y-126978919D01*
X155916962Y-127203200D01*
X156503038Y-127203200D01*
X157044501Y-126978919D01*
X157458919Y-126564501D01*
X157480000Y-126513607D01*
X157501081Y-126564501D01*
X157915499Y-126978919D01*
X158456962Y-127203200D01*
X159043038Y-127203200D01*
X159584501Y-126978919D01*
X159798007Y-126765413D01*
X160434192Y-126765413D01*
X160513017Y-127015490D01*
X161064097Y-127214977D01*
X161649569Y-127188389D01*
X162066983Y-127015490D01*
X162145808Y-126765413D01*
X161290000Y-125909605D01*
X160434192Y-126765413D01*
X159798007Y-126765413D01*
X159998919Y-126564501D01*
X160020638Y-126512067D01*
X160254587Y-126585808D01*
X161110395Y-125730000D01*
X161469605Y-125730000D01*
X162325413Y-126585808D01*
X162575490Y-126506983D01*
X162774977Y-125955903D01*
X162748389Y-125370431D01*
X162575490Y-124953017D01*
X162325413Y-124874192D01*
X161469605Y-125730000D01*
X161110395Y-125730000D01*
X160254587Y-124874192D01*
X160020638Y-124947933D01*
X159998919Y-124895499D01*
X159798007Y-124694587D01*
X160434192Y-124694587D01*
X161290000Y-125550395D01*
X162145808Y-124694587D01*
X162066983Y-124444510D01*
X161515903Y-124245023D01*
X160960660Y-124270238D01*
X161122198Y-124203327D01*
X161300827Y-124024699D01*
X161397500Y-123791310D01*
X161397500Y-123475750D01*
X161238750Y-123317000D01*
X160452000Y-123317000D01*
X160452000Y-124141250D01*
X160610750Y-124300000D01*
X160861894Y-124300000D01*
X160513017Y-124444510D01*
X160434192Y-124694587D01*
X159798007Y-124694587D01*
X159584501Y-124481081D01*
X159512000Y-124451050D01*
X159512000Y-124187525D01*
X159527802Y-124203327D01*
X159761191Y-124300000D01*
X160039250Y-124300000D01*
X160198000Y-124141250D01*
X160198000Y-123317000D01*
X160178000Y-123317000D01*
X160178000Y-123063000D01*
X160198000Y-123063000D01*
X160198000Y-122238750D01*
X160452000Y-122238750D01*
X160452000Y-123063000D01*
X161238750Y-123063000D01*
X161397500Y-122904250D01*
X161397500Y-122588690D01*
X161300827Y-122355301D01*
X161122198Y-122176673D01*
X160888809Y-122080000D01*
X160610750Y-122080000D01*
X160452000Y-122238750D01*
X160198000Y-122238750D01*
X160039250Y-122080000D01*
X159761191Y-122080000D01*
X159527802Y-122176673D01*
X159512000Y-122192475D01*
X159512000Y-120090047D01*
X159526928Y-120015000D01*
X159512000Y-119939952D01*
X159467788Y-119717683D01*
X159299371Y-119465629D01*
X159235749Y-119423118D01*
X155702000Y-115889370D01*
X155702000Y-112116890D01*
X159848524Y-112116890D01*
X160018355Y-112526924D01*
X160408642Y-112955183D01*
X160933108Y-113201486D01*
X161163000Y-113080819D01*
X161163000Y-111887000D01*
X161417000Y-111887000D01*
X161417000Y-113080819D01*
X161646892Y-113201486D01*
X162171358Y-112955183D01*
X162561645Y-112526924D01*
X162731476Y-112116890D01*
X162610155Y-111887000D01*
X161417000Y-111887000D01*
X161163000Y-111887000D01*
X159969845Y-111887000D01*
X159848524Y-112116890D01*
X155702000Y-112116890D01*
X155702000Y-109505750D01*
X159805000Y-109505750D01*
X159805000Y-110196310D01*
X159901673Y-110429699D01*
X160080302Y-110608327D01*
X160289878Y-110695136D01*
X160018355Y-110993076D01*
X159848524Y-111403110D01*
X159969845Y-111633000D01*
X161163000Y-111633000D01*
X161163000Y-109347000D01*
X161417000Y-109347000D01*
X161417000Y-111633000D01*
X162610155Y-111633000D01*
X162731476Y-111403110D01*
X162561645Y-110993076D01*
X162290122Y-110695136D01*
X162499698Y-110608327D01*
X162678327Y-110429699D01*
X162775000Y-110196310D01*
X162775000Y-109505750D01*
X162616250Y-109347000D01*
X161417000Y-109347000D01*
X161163000Y-109347000D01*
X159963750Y-109347000D01*
X159805000Y-109505750D01*
X155702000Y-109505750D01*
X155702000Y-108243690D01*
X159805000Y-108243690D01*
X159805000Y-108934250D01*
X159963750Y-109093000D01*
X161163000Y-109093000D01*
X161163000Y-107893750D01*
X161417000Y-107893750D01*
X161417000Y-109093000D01*
X162616250Y-109093000D01*
X162775000Y-108934250D01*
X162775000Y-108243690D01*
X162678327Y-108010301D01*
X162499698Y-107831673D01*
X162266309Y-107735000D01*
X161575750Y-107735000D01*
X161417000Y-107893750D01*
X161163000Y-107893750D01*
X161004250Y-107735000D01*
X160313691Y-107735000D01*
X160080302Y-107831673D01*
X159901673Y-108010301D01*
X159805000Y-108243690D01*
X155702000Y-108243690D01*
X155702000Y-99287440D01*
X155790000Y-99287440D01*
X156037765Y-99238157D01*
X156247809Y-99097809D01*
X156388157Y-98887765D01*
X156408739Y-98784292D01*
X156713076Y-99061645D01*
X157123110Y-99231476D01*
X157353000Y-99110155D01*
X157353000Y-97917000D01*
X157607000Y-97917000D01*
X157607000Y-99110155D01*
X157836890Y-99231476D01*
X158246924Y-99061645D01*
X158675183Y-98671358D01*
X158921486Y-98146892D01*
X158800819Y-97917000D01*
X157607000Y-97917000D01*
X157353000Y-97917000D01*
X157333000Y-97917000D01*
X157333000Y-97663000D01*
X157353000Y-97663000D01*
X157353000Y-96469845D01*
X157607000Y-96469845D01*
X157607000Y-97663000D01*
X158800819Y-97663000D01*
X158921486Y-97433108D01*
X158675183Y-96908642D01*
X158246924Y-96518355D01*
X157836890Y-96348524D01*
X157607000Y-96469845D01*
X157353000Y-96469845D01*
X157123110Y-96348524D01*
X156713076Y-96518355D01*
X156408739Y-96795708D01*
X156388157Y-96692235D01*
X156247809Y-96482191D01*
X156037765Y-96341843D01*
X155790000Y-96292560D01*
X154090000Y-96292560D01*
X153842235Y-96341843D01*
X153632191Y-96482191D01*
X153491843Y-96692235D01*
X153442560Y-96940000D01*
X153442560Y-98640000D01*
X153491843Y-98887765D01*
X153632191Y-99097809D01*
X153842235Y-99238157D01*
X154090000Y-99287440D01*
X154178001Y-99287440D01*
X154178000Y-116129957D01*
X154163073Y-116205000D01*
X154178000Y-116280043D01*
X154178000Y-116280047D01*
X154222212Y-116502316D01*
X154390629Y-116754371D01*
X154454253Y-116796883D01*
X157988001Y-120330632D01*
X157988000Y-122274997D01*
X157918761Y-122321261D01*
X157730995Y-122602273D01*
X157665060Y-122933750D01*
X157665060Y-123446250D01*
X157730995Y-123777727D01*
X157918761Y-124058739D01*
X157988001Y-124105003D01*
X157988001Y-124451050D01*
X157915499Y-124481081D01*
X157501081Y-124895499D01*
X157480000Y-124946393D01*
X157458919Y-124895499D01*
X157044501Y-124481081D01*
X156997400Y-124461571D01*
X156997400Y-124088031D01*
X157041239Y-124058739D01*
X157229005Y-123777727D01*
X157294940Y-123446250D01*
X157294940Y-122933750D01*
X157229005Y-122602273D01*
X157041239Y-122321261D01*
X156997400Y-122291969D01*
X156997400Y-121880559D01*
X157039023Y-121838936D01*
X157187900Y-121479516D01*
X157187900Y-121090484D01*
X157039023Y-120731064D01*
X156763936Y-120455977D01*
X156404516Y-120307100D01*
X156015484Y-120307100D01*
X155656064Y-120455977D01*
X155380977Y-120731064D01*
X155232100Y-121090484D01*
X155232100Y-121479516D01*
X155380977Y-121838936D01*
X155422601Y-121880560D01*
X155422601Y-122172698D01*
X155198809Y-122080000D01*
X154920750Y-122080000D01*
X154762000Y-122238750D01*
X154762000Y-123063000D01*
X154782000Y-123063000D01*
X154782000Y-123317000D01*
X154762000Y-123317000D01*
X154762000Y-124141250D01*
X154920750Y-124300000D01*
X155198809Y-124300000D01*
X155422601Y-124207302D01*
X155422600Y-124461571D01*
X155375499Y-124481081D01*
X154961081Y-124895499D01*
X154940000Y-124946393D01*
X154918919Y-124895499D01*
X154504501Y-124481081D01*
X153963038Y-124256800D01*
X153376962Y-124256800D01*
X152835499Y-124481081D01*
X152421081Y-124895499D01*
X152196800Y-125436962D01*
X152196800Y-126023038D01*
X152226831Y-126095539D01*
X150532339Y-127790031D01*
X150447727Y-127733495D01*
X150116250Y-127667560D01*
X149603750Y-127667560D01*
X149272273Y-127733495D01*
X148991261Y-127921261D01*
X148803495Y-128202273D01*
X148737560Y-128533750D01*
X103580000Y-128533750D01*
X103580000Y-123190000D01*
X104838760Y-123190000D01*
X104838760Y-125730000D01*
X104888043Y-125977765D01*
X105028391Y-126187809D01*
X105238435Y-126328157D01*
X105486200Y-126377440D01*
X108026200Y-126377440D01*
X108273965Y-126328157D01*
X108484009Y-126187809D01*
X108624357Y-125977765D01*
X108673640Y-125730000D01*
X108673640Y-125292161D01*
X109025484Y-125437900D01*
X109414516Y-125437900D01*
X109773936Y-125289023D01*
X110049023Y-125013936D01*
X110160109Y-124745750D01*
X142798800Y-124745750D01*
X142798800Y-125856310D01*
X142895473Y-126089699D01*
X143074102Y-126268327D01*
X143307491Y-126365000D01*
X144418050Y-126365000D01*
X144576800Y-126206250D01*
X144576800Y-124587000D01*
X144830800Y-124587000D01*
X144830800Y-126206250D01*
X144989550Y-126365000D01*
X146100109Y-126365000D01*
X146333498Y-126268327D01*
X146512127Y-126089699D01*
X146608800Y-125856310D01*
X146608800Y-124745750D01*
X146450050Y-124587000D01*
X144830800Y-124587000D01*
X144576800Y-124587000D01*
X142957550Y-124587000D01*
X142798800Y-124745750D01*
X110160109Y-124745750D01*
X110197900Y-124654516D01*
X110197900Y-124265484D01*
X110049023Y-123906064D01*
X109773936Y-123630977D01*
X109414516Y-123482100D01*
X109025484Y-123482100D01*
X108673640Y-123627839D01*
X108673640Y-123190000D01*
X108648516Y-123063690D01*
X142798800Y-123063690D01*
X142798800Y-124174250D01*
X142957550Y-124333000D01*
X144576800Y-124333000D01*
X144576800Y-122713750D01*
X144830800Y-122713750D01*
X144830800Y-124333000D01*
X146450050Y-124333000D01*
X146608800Y-124174250D01*
X146608800Y-123475750D01*
X153562500Y-123475750D01*
X153562500Y-123791310D01*
X153659173Y-124024699D01*
X153837802Y-124203327D01*
X154071191Y-124300000D01*
X154349250Y-124300000D01*
X154508000Y-124141250D01*
X154508000Y-123317000D01*
X153721250Y-123317000D01*
X153562500Y-123475750D01*
X146608800Y-123475750D01*
X146608800Y-123063690D01*
X146512127Y-122830301D01*
X146333498Y-122651673D01*
X146181444Y-122588690D01*
X153562500Y-122588690D01*
X153562500Y-122904250D01*
X153721250Y-123063000D01*
X154508000Y-123063000D01*
X154508000Y-122238750D01*
X154349250Y-122080000D01*
X154071191Y-122080000D01*
X153837802Y-122176673D01*
X153659173Y-122355301D01*
X153562500Y-122588690D01*
X146181444Y-122588690D01*
X146100109Y-122555000D01*
X144989550Y-122555000D01*
X144830800Y-122713750D01*
X144576800Y-122713750D01*
X144418050Y-122555000D01*
X143307491Y-122555000D01*
X143074102Y-122651673D01*
X142895473Y-122830301D01*
X142798800Y-123063690D01*
X108648516Y-123063690D01*
X108624357Y-122942235D01*
X108484009Y-122732191D01*
X108273965Y-122591843D01*
X108026200Y-122542560D01*
X105486200Y-122542560D01*
X105238435Y-122591843D01*
X105028391Y-122732191D01*
X104888043Y-122942235D01*
X104838760Y-123190000D01*
X103580000Y-123190000D01*
X103580000Y-111507381D01*
X144018000Y-111507381D01*
X144018000Y-112012619D01*
X144211346Y-112479397D01*
X144568603Y-112836654D01*
X145035381Y-113030000D01*
X145540619Y-113030000D01*
X146007397Y-112836654D01*
X146364654Y-112479397D01*
X146558000Y-112012619D01*
X146558000Y-111507381D01*
X146364654Y-111040603D01*
X146007397Y-110683346D01*
X145540619Y-110490000D01*
X145035381Y-110490000D01*
X144568603Y-110683346D01*
X144211346Y-111040603D01*
X144018000Y-111507381D01*
X103580000Y-111507381D01*
X103580000Y-105695750D01*
X104851200Y-105695750D01*
X104851200Y-106806310D01*
X104947873Y-107039699D01*
X105126502Y-107218327D01*
X105359891Y-107315000D01*
X106470450Y-107315000D01*
X106629200Y-107156250D01*
X106629200Y-105537000D01*
X106883200Y-105537000D01*
X106883200Y-107156250D01*
X107041950Y-107315000D01*
X108152509Y-107315000D01*
X108385898Y-107218327D01*
X108564527Y-107039699D01*
X108661200Y-106806310D01*
X108661200Y-105695750D01*
X108502450Y-105537000D01*
X106883200Y-105537000D01*
X106629200Y-105537000D01*
X105009950Y-105537000D01*
X104851200Y-105695750D01*
X103580000Y-105695750D01*
X103580000Y-104013690D01*
X104851200Y-104013690D01*
X104851200Y-105124250D01*
X105009950Y-105283000D01*
X106629200Y-105283000D01*
X106629200Y-103663750D01*
X106883200Y-103663750D01*
X106883200Y-105283000D01*
X108502450Y-105283000D01*
X108661200Y-105124250D01*
X108661200Y-104140000D01*
X142786360Y-104140000D01*
X142786360Y-106680000D01*
X142835643Y-106927765D01*
X142975991Y-107137809D01*
X143186035Y-107278157D01*
X143433800Y-107327440D01*
X143871639Y-107327440D01*
X143725900Y-107679284D01*
X143725900Y-108068316D01*
X143874777Y-108427736D01*
X144149864Y-108702823D01*
X144509284Y-108851700D01*
X144898316Y-108851700D01*
X145257736Y-108702823D01*
X145532823Y-108427736D01*
X145681700Y-108068316D01*
X145681700Y-107679284D01*
X145535961Y-107327440D01*
X145973800Y-107327440D01*
X146221565Y-107278157D01*
X146431609Y-107137809D01*
X146571957Y-106927765D01*
X146621240Y-106680000D01*
X146621240Y-104140000D01*
X146571957Y-103892235D01*
X146431609Y-103682191D01*
X146221565Y-103541843D01*
X145973800Y-103492560D01*
X143433800Y-103492560D01*
X143186035Y-103541843D01*
X142975991Y-103682191D01*
X142835643Y-103892235D01*
X142786360Y-104140000D01*
X108661200Y-104140000D01*
X108661200Y-104013690D01*
X108564527Y-103780301D01*
X108385898Y-103601673D01*
X108152509Y-103505000D01*
X107041950Y-103505000D01*
X106883200Y-103663750D01*
X106629200Y-103663750D01*
X106470450Y-103505000D01*
X105359891Y-103505000D01*
X105126502Y-103601673D01*
X104947873Y-103780301D01*
X104851200Y-104013690D01*
X103580000Y-104013690D01*
X103580000Y-95960000D01*
X163120000Y-95960000D01*
X163120001Y-152960000D01*
X163120001Y-152960000D01*
G37*
X163120001Y-152960000D02*
X103580000Y-152960000D01*
X103580000Y-149607381D01*
X144018000Y-149607381D01*
X144018000Y-150112619D01*
X144211346Y-150579397D01*
X144568603Y-150936654D01*
X145035381Y-151130000D01*
X145540619Y-151130000D01*
X146007397Y-150936654D01*
X146364654Y-150579397D01*
X146558000Y-150112619D01*
X146558000Y-149607381D01*
X146364654Y-149140603D01*
X146007397Y-148783346D01*
X145540619Y-148590000D01*
X145035381Y-148590000D01*
X144568603Y-148783346D01*
X144211346Y-149140603D01*
X144018000Y-149607381D01*
X103580000Y-149607381D01*
X103580000Y-143795750D01*
X104851200Y-143795750D01*
X104851200Y-144906310D01*
X104947873Y-145139699D01*
X105126502Y-145318327D01*
X105359891Y-145415000D01*
X106470450Y-145415000D01*
X106629200Y-145256250D01*
X106629200Y-143637000D01*
X106883200Y-143637000D01*
X106883200Y-145256250D01*
X107041950Y-145415000D01*
X108152509Y-145415000D01*
X108385898Y-145318327D01*
X108564527Y-145139699D01*
X108661200Y-144906310D01*
X108661200Y-143795750D01*
X108502450Y-143637000D01*
X106883200Y-143637000D01*
X106629200Y-143637000D01*
X105009950Y-143637000D01*
X104851200Y-143795750D01*
X103580000Y-143795750D01*
X103580000Y-142113690D01*
X104851200Y-142113690D01*
X104851200Y-143224250D01*
X105009950Y-143383000D01*
X106629200Y-143383000D01*
X106629200Y-141763750D01*
X106883200Y-141763750D01*
X106883200Y-143383000D01*
X108502450Y-143383000D01*
X108661200Y-143224250D01*
X108661200Y-142240000D01*
X142786360Y-142240000D01*
X142786360Y-144780000D01*
X142835643Y-145027765D01*
X142975991Y-145237809D01*
X143186035Y-145378157D01*
X143433800Y-145427440D01*
X143985748Y-145427440D01*
X144136117Y-145652484D01*
X144201863Y-145696414D01*
X146327386Y-147821938D01*
X146371316Y-147887684D01*
X146631772Y-148061715D01*
X146861448Y-148107400D01*
X146938999Y-148122826D01*
X147016550Y-148107400D01*
X153442560Y-148107400D01*
X153442560Y-148170000D01*
X153491843Y-148417765D01*
X153632191Y-148627809D01*
X153842235Y-148768157D01*
X154090000Y-148817440D01*
X155790000Y-148817440D01*
X156037765Y-148768157D01*
X156247809Y-148627809D01*
X156388157Y-148417765D01*
X156437440Y-148170000D01*
X156437440Y-146470000D01*
X156388157Y-146222235D01*
X156247809Y-146012191D01*
X156037765Y-145871843D01*
X155992381Y-145862816D01*
X156010625Y-145850625D01*
X156338839Y-145359418D01*
X156454092Y-144780000D01*
X156381679Y-144415951D01*
X157965747Y-142831883D01*
X158029371Y-142789371D01*
X158197788Y-142537317D01*
X158242000Y-142315048D01*
X158242000Y-142315044D01*
X158256927Y-142240001D01*
X158242000Y-142164958D01*
X158242000Y-138585017D01*
X158489586Y-138419586D01*
X158684126Y-138128435D01*
X158752440Y-137785000D01*
X158752440Y-137115750D01*
X160180000Y-137115750D01*
X160180000Y-137393809D01*
X160276673Y-137627198D01*
X160455301Y-137805827D01*
X160688690Y-137902500D01*
X161004250Y-137902500D01*
X161163000Y-137743750D01*
X161163000Y-136957000D01*
X161417000Y-136957000D01*
X161417000Y-137743750D01*
X161575750Y-137902500D01*
X161891310Y-137902500D01*
X162124699Y-137805827D01*
X162303327Y-137627198D01*
X162400000Y-137393809D01*
X162400000Y-137115750D01*
X162241250Y-136957000D01*
X161417000Y-136957000D01*
X161163000Y-136957000D01*
X160338750Y-136957000D01*
X160180000Y-137115750D01*
X158752440Y-137115750D01*
X158752440Y-136535000D01*
X158684126Y-136191565D01*
X158489586Y-135900414D01*
X158242000Y-135734983D01*
X158242000Y-134935630D01*
X158384461Y-134793169D01*
X158456962Y-134823200D01*
X158505386Y-134823200D01*
X158407100Y-135060484D01*
X158407100Y-135449516D01*
X158555977Y-135808936D01*
X158831064Y-136084023D01*
X159190484Y-136232900D01*
X159579516Y-136232900D01*
X159938936Y-136084023D01*
X159980559Y-136042400D01*
X160272697Y-136042400D01*
X160180000Y-136266191D01*
X160180000Y-136544250D01*
X160338750Y-136703000D01*
X161163000Y-136703000D01*
X161163000Y-136683000D01*
X161417000Y-136683000D01*
X161417000Y-136703000D01*
X162241250Y-136703000D01*
X162400000Y-136544250D01*
X162400000Y-136266191D01*
X162303327Y-136032802D01*
X162238057Y-135967531D01*
X162346505Y-135805227D01*
X162412440Y-135473750D01*
X162412440Y-135036250D01*
X162346505Y-134704773D01*
X162215184Y-134508236D01*
X162538919Y-134184501D01*
X162763200Y-133643038D01*
X162763200Y-133056962D01*
X162538919Y-132515499D01*
X162124501Y-132101081D01*
X161583038Y-131876800D01*
X160996962Y-131876800D01*
X160455499Y-132101081D01*
X160041081Y-132515499D01*
X160020000Y-132566393D01*
X159998919Y-132515499D01*
X159584501Y-132101081D01*
X159043038Y-131876800D01*
X158456962Y-131876800D01*
X157915499Y-132101081D01*
X157501081Y-132515499D01*
X157479362Y-132567933D01*
X157245413Y-132494192D01*
X156389605Y-133350000D01*
X156403748Y-133364143D01*
X156224143Y-133543748D01*
X156210000Y-133529605D01*
X155354192Y-134385413D01*
X155433017Y-134635490D01*
X155984097Y-134834977D01*
X156569569Y-134808389D01*
X156718000Y-134746907D01*
X156718000Y-135734983D01*
X156470414Y-135900414D01*
X156275874Y-136191565D01*
X156207560Y-136535000D01*
X156207560Y-137785000D01*
X156275874Y-138128435D01*
X156470414Y-138419586D01*
X156718001Y-138585017D01*
X156718000Y-141924370D01*
X155304049Y-143338321D01*
X155086256Y-143295000D01*
X154793744Y-143295000D01*
X154360582Y-143381161D01*
X153869375Y-143709375D01*
X153541161Y-144200582D01*
X153425908Y-144780000D01*
X153541161Y-145359418D01*
X153869375Y-145850625D01*
X153887619Y-145862816D01*
X153842235Y-145871843D01*
X153632191Y-146012191D01*
X153491843Y-146222235D01*
X153442560Y-146470000D01*
X153442560Y-146532600D01*
X147265152Y-146532600D01*
X146129101Y-145396549D01*
X146221565Y-145378157D01*
X146431609Y-145237809D01*
X146571957Y-145027765D01*
X146621240Y-144780000D01*
X146621240Y-142240000D01*
X146571957Y-141992235D01*
X146431609Y-141782191D01*
X146221565Y-141641843D01*
X145973800Y-141592560D01*
X143433800Y-141592560D01*
X143186035Y-141641843D01*
X142975991Y-141782191D01*
X142835643Y-141992235D01*
X142786360Y-142240000D01*
X108661200Y-142240000D01*
X108661200Y-142113690D01*
X108564527Y-141880301D01*
X108385898Y-141701673D01*
X108152509Y-141605000D01*
X107041950Y-141605000D01*
X106883200Y-141763750D01*
X106629200Y-141763750D01*
X106470450Y-141605000D01*
X105359891Y-141605000D01*
X105126502Y-141701673D01*
X104947873Y-141880301D01*
X104851200Y-142113690D01*
X103580000Y-142113690D01*
X103580000Y-137445750D01*
X153420000Y-137445750D01*
X153420000Y-138161310D01*
X153516673Y-138394699D01*
X153695302Y-138573327D01*
X153928691Y-138670000D01*
X154394250Y-138670000D01*
X154553000Y-138511250D01*
X154553000Y-137287000D01*
X154807000Y-137287000D01*
X154807000Y-138511250D01*
X154965750Y-138670000D01*
X155431309Y-138670000D01*
X155664698Y-138573327D01*
X155843327Y-138394699D01*
X155940000Y-138161310D01*
X155940000Y-137445750D01*
X155781250Y-137287000D01*
X154807000Y-137287000D01*
X154553000Y-137287000D01*
X153578750Y-137287000D01*
X153420000Y-137445750D01*
X103580000Y-137445750D01*
X103580000Y-136158690D01*
X153420000Y-136158690D01*
X153420000Y-136874250D01*
X153578750Y-137033000D01*
X154553000Y-137033000D01*
X154553000Y-135808750D01*
X154807000Y-135808750D01*
X154807000Y-137033000D01*
X155781250Y-137033000D01*
X155940000Y-136874250D01*
X155940000Y-136158690D01*
X155843327Y-135925301D01*
X155664698Y-135746673D01*
X155431309Y-135650000D01*
X154965750Y-135650000D01*
X154807000Y-135808750D01*
X154553000Y-135808750D01*
X154394250Y-135650000D01*
X153928691Y-135650000D01*
X153695302Y-135746673D01*
X153516673Y-135925301D01*
X153420000Y-136158690D01*
X103580000Y-136158690D01*
X103580000Y-130557381D01*
X144018000Y-130557381D01*
X144018000Y-131062619D01*
X144211346Y-131529397D01*
X144568603Y-131886654D01*
X145035381Y-132080000D01*
X145540619Y-132080000D01*
X146007397Y-131886654D01*
X146364654Y-131529397D01*
X146558000Y-131062619D01*
X146558000Y-130557381D01*
X146364654Y-130090603D01*
X146007397Y-129733346D01*
X145540619Y-129540000D01*
X145035381Y-129540000D01*
X144568603Y-129733346D01*
X144211346Y-130090603D01*
X144018000Y-130557381D01*
X103580000Y-130557381D01*
X103580000Y-128533750D01*
X148737560Y-128533750D01*
X148737560Y-128971250D01*
X148803495Y-129302727D01*
X148962036Y-129540000D01*
X148803495Y-129777273D01*
X148737560Y-130108750D01*
X148737560Y-130546250D01*
X148803495Y-130877727D01*
X148991261Y-131158739D01*
X149272273Y-131346505D01*
X149603750Y-131412440D01*
X150116250Y-131412440D01*
X150447727Y-131346505D01*
X150728739Y-131158739D01*
X150775003Y-131089500D01*
X151424070Y-131089500D01*
X152382725Y-132048155D01*
X152373991Y-132053991D01*
X152233643Y-132264035D01*
X152184360Y-132511800D01*
X152184360Y-134188200D01*
X152233643Y-134435965D01*
X152373991Y-134646009D01*
X152584035Y-134786357D01*
X152831800Y-134835640D01*
X154508200Y-134835640D01*
X154755965Y-134786357D01*
X154966009Y-134646009D01*
X155106357Y-134435965D01*
X155153462Y-134199149D01*
X155174587Y-134205808D01*
X156030395Y-133350000D01*
X155174587Y-132494192D01*
X155153462Y-132500851D01*
X155116413Y-132314587D01*
X155354192Y-132314587D01*
X156210000Y-133170395D01*
X157065808Y-132314587D01*
X156986983Y-132064510D01*
X156435903Y-131865023D01*
X155850431Y-131891611D01*
X155433017Y-132064510D01*
X155354192Y-132314587D01*
X155116413Y-132314587D01*
X155106357Y-132264035D01*
X154966009Y-132053991D01*
X154755965Y-131913643D01*
X154508200Y-131864360D01*
X154323561Y-131864360D01*
X154261882Y-131772051D01*
X154219371Y-131708429D01*
X154155749Y-131665918D01*
X152331583Y-129841753D01*
X152289071Y-129778129D01*
X152037017Y-129609712D01*
X151814748Y-129565500D01*
X151814743Y-129565500D01*
X151739700Y-129550573D01*
X151664657Y-129565500D01*
X150775003Y-129565500D01*
X150757964Y-129540000D01*
X150783043Y-129502467D01*
X150944817Y-129470288D01*
X151196871Y-129301871D01*
X151239384Y-129238246D01*
X153304461Y-127173169D01*
X153376962Y-127203200D01*
X153963038Y-127203200D01*
X154504501Y-126978919D01*
X154918919Y-126564501D01*
X154940000Y-126513607D01*
X154961081Y-126564501D01*
X155375499Y-126978919D01*
X155916962Y-127203200D01*
X156503038Y-127203200D01*
X157044501Y-126978919D01*
X157458919Y-126564501D01*
X157480000Y-126513607D01*
X157501081Y-126564501D01*
X157915499Y-126978919D01*
X158456962Y-127203200D01*
X159043038Y-127203200D01*
X159584501Y-126978919D01*
X159798007Y-126765413D01*
X160434192Y-126765413D01*
X160513017Y-127015490D01*
X161064097Y-127214977D01*
X161649569Y-127188389D01*
X162066983Y-127015490D01*
X162145808Y-126765413D01*
X161290000Y-125909605D01*
X160434192Y-126765413D01*
X159798007Y-126765413D01*
X159998919Y-126564501D01*
X160020638Y-126512067D01*
X160254587Y-126585808D01*
X161110395Y-125730000D01*
X161469605Y-125730000D01*
X162325413Y-126585808D01*
X162575490Y-126506983D01*
X162774977Y-125955903D01*
X162748389Y-125370431D01*
X162575490Y-124953017D01*
X162325413Y-124874192D01*
X161469605Y-125730000D01*
X161110395Y-125730000D01*
X160254587Y-124874192D01*
X160020638Y-124947933D01*
X159998919Y-124895499D01*
X159798007Y-124694587D01*
X160434192Y-124694587D01*
X161290000Y-125550395D01*
X162145808Y-124694587D01*
X162066983Y-124444510D01*
X161515903Y-124245023D01*
X160960660Y-124270238D01*
X161122198Y-124203327D01*
X161300827Y-124024699D01*
X161397500Y-123791310D01*
X161397500Y-123475750D01*
X161238750Y-123317000D01*
X160452000Y-123317000D01*
X160452000Y-124141250D01*
X160610750Y-124300000D01*
X160861894Y-124300000D01*
X160513017Y-124444510D01*
X160434192Y-124694587D01*
X159798007Y-124694587D01*
X159584501Y-124481081D01*
X159512000Y-124451050D01*
X159512000Y-124187525D01*
X159527802Y-124203327D01*
X159761191Y-124300000D01*
X160039250Y-124300000D01*
X160198000Y-124141250D01*
X160198000Y-123317000D01*
X160178000Y-123317000D01*
X160178000Y-123063000D01*
X160198000Y-123063000D01*
X160198000Y-122238750D01*
X160452000Y-122238750D01*
X160452000Y-123063000D01*
X161238750Y-123063000D01*
X161397500Y-122904250D01*
X161397500Y-122588690D01*
X161300827Y-122355301D01*
X161122198Y-122176673D01*
X160888809Y-122080000D01*
X160610750Y-122080000D01*
X160452000Y-122238750D01*
X160198000Y-122238750D01*
X160039250Y-122080000D01*
X159761191Y-122080000D01*
X159527802Y-122176673D01*
X159512000Y-122192475D01*
X159512000Y-120090047D01*
X159526928Y-120015000D01*
X159512000Y-119939952D01*
X159467788Y-119717683D01*
X159299371Y-119465629D01*
X159235749Y-119423118D01*
X155702000Y-115889370D01*
X155702000Y-112116890D01*
X159848524Y-112116890D01*
X160018355Y-112526924D01*
X160408642Y-112955183D01*
X160933108Y-113201486D01*
X161163000Y-113080819D01*
X161163000Y-111887000D01*
X161417000Y-111887000D01*
X161417000Y-113080819D01*
X161646892Y-113201486D01*
X162171358Y-112955183D01*
X162561645Y-112526924D01*
X162731476Y-112116890D01*
X162610155Y-111887000D01*
X161417000Y-111887000D01*
X161163000Y-111887000D01*
X159969845Y-111887000D01*
X159848524Y-112116890D01*
X155702000Y-112116890D01*
X155702000Y-109505750D01*
X159805000Y-109505750D01*
X159805000Y-110196310D01*
X159901673Y-110429699D01*
X160080302Y-110608327D01*
X160289878Y-110695136D01*
X160018355Y-110993076D01*
X159848524Y-111403110D01*
X159969845Y-111633000D01*
X161163000Y-111633000D01*
X161163000Y-109347000D01*
X161417000Y-109347000D01*
X161417000Y-111633000D01*
X162610155Y-111633000D01*
X162731476Y-111403110D01*
X162561645Y-110993076D01*
X162290122Y-110695136D01*
X162499698Y-110608327D01*
X162678327Y-110429699D01*
X162775000Y-110196310D01*
X162775000Y-109505750D01*
X162616250Y-109347000D01*
X161417000Y-109347000D01*
X161163000Y-109347000D01*
X159963750Y-109347000D01*
X159805000Y-109505750D01*
X155702000Y-109505750D01*
X155702000Y-108243690D01*
X159805000Y-108243690D01*
X159805000Y-108934250D01*
X159963750Y-109093000D01*
X161163000Y-109093000D01*
X161163000Y-107893750D01*
X161417000Y-107893750D01*
X161417000Y-109093000D01*
X162616250Y-109093000D01*
X162775000Y-108934250D01*
X162775000Y-108243690D01*
X162678327Y-108010301D01*
X162499698Y-107831673D01*
X162266309Y-107735000D01*
X161575750Y-107735000D01*
X161417000Y-107893750D01*
X161163000Y-107893750D01*
X161004250Y-107735000D01*
X160313691Y-107735000D01*
X160080302Y-107831673D01*
X159901673Y-108010301D01*
X159805000Y-108243690D01*
X155702000Y-108243690D01*
X155702000Y-99287440D01*
X155790000Y-99287440D01*
X156037765Y-99238157D01*
X156247809Y-99097809D01*
X156388157Y-98887765D01*
X156408739Y-98784292D01*
X156713076Y-99061645D01*
X157123110Y-99231476D01*
X157353000Y-99110155D01*
X157353000Y-97917000D01*
X157607000Y-97917000D01*
X157607000Y-99110155D01*
X157836890Y-99231476D01*
X158246924Y-99061645D01*
X158675183Y-98671358D01*
X158921486Y-98146892D01*
X158800819Y-97917000D01*
X157607000Y-97917000D01*
X157353000Y-97917000D01*
X157333000Y-97917000D01*
X157333000Y-97663000D01*
X157353000Y-97663000D01*
X157353000Y-96469845D01*
X157607000Y-96469845D01*
X157607000Y-97663000D01*
X158800819Y-97663000D01*
X158921486Y-97433108D01*
X158675183Y-96908642D01*
X158246924Y-96518355D01*
X157836890Y-96348524D01*
X157607000Y-96469845D01*
X157353000Y-96469845D01*
X157123110Y-96348524D01*
X156713076Y-96518355D01*
X156408739Y-96795708D01*
X156388157Y-96692235D01*
X156247809Y-96482191D01*
X156037765Y-96341843D01*
X155790000Y-96292560D01*
X154090000Y-96292560D01*
X153842235Y-96341843D01*
X153632191Y-96482191D01*
X153491843Y-96692235D01*
X153442560Y-96940000D01*
X153442560Y-98640000D01*
X153491843Y-98887765D01*
X153632191Y-99097809D01*
X153842235Y-99238157D01*
X154090000Y-99287440D01*
X154178001Y-99287440D01*
X154178000Y-116129957D01*
X154163073Y-116205000D01*
X154178000Y-116280043D01*
X154178000Y-116280047D01*
X154222212Y-116502316D01*
X154390629Y-116754371D01*
X154454253Y-116796883D01*
X157988001Y-120330632D01*
X157988000Y-122274997D01*
X157918761Y-122321261D01*
X157730995Y-122602273D01*
X157665060Y-122933750D01*
X157665060Y-123446250D01*
X157730995Y-123777727D01*
X157918761Y-124058739D01*
X157988001Y-124105003D01*
X157988001Y-124451050D01*
X157915499Y-124481081D01*
X157501081Y-124895499D01*
X157480000Y-124946393D01*
X157458919Y-124895499D01*
X157044501Y-124481081D01*
X156997400Y-124461571D01*
X156997400Y-124088031D01*
X157041239Y-124058739D01*
X157229005Y-123777727D01*
X157294940Y-123446250D01*
X157294940Y-122933750D01*
X157229005Y-122602273D01*
X157041239Y-122321261D01*
X156997400Y-122291969D01*
X156997400Y-121880559D01*
X157039023Y-121838936D01*
X157187900Y-121479516D01*
X157187900Y-121090484D01*
X157039023Y-120731064D01*
X156763936Y-120455977D01*
X156404516Y-120307100D01*
X156015484Y-120307100D01*
X155656064Y-120455977D01*
X155380977Y-120731064D01*
X155232100Y-121090484D01*
X155232100Y-121479516D01*
X155380977Y-121838936D01*
X155422601Y-121880560D01*
X155422601Y-122172698D01*
X155198809Y-122080000D01*
X154920750Y-122080000D01*
X154762000Y-122238750D01*
X154762000Y-123063000D01*
X154782000Y-123063000D01*
X154782000Y-123317000D01*
X154762000Y-123317000D01*
X154762000Y-124141250D01*
X154920750Y-124300000D01*
X155198809Y-124300000D01*
X155422601Y-124207302D01*
X155422600Y-124461571D01*
X155375499Y-124481081D01*
X154961081Y-124895499D01*
X154940000Y-124946393D01*
X154918919Y-124895499D01*
X154504501Y-124481081D01*
X153963038Y-124256800D01*
X153376962Y-124256800D01*
X152835499Y-124481081D01*
X152421081Y-124895499D01*
X152196800Y-125436962D01*
X152196800Y-126023038D01*
X152226831Y-126095539D01*
X150532339Y-127790031D01*
X150447727Y-127733495D01*
X150116250Y-127667560D01*
X149603750Y-127667560D01*
X149272273Y-127733495D01*
X148991261Y-127921261D01*
X148803495Y-128202273D01*
X148737560Y-128533750D01*
X103580000Y-128533750D01*
X103580000Y-123190000D01*
X104838760Y-123190000D01*
X104838760Y-125730000D01*
X104888043Y-125977765D01*
X105028391Y-126187809D01*
X105238435Y-126328157D01*
X105486200Y-126377440D01*
X108026200Y-126377440D01*
X108273965Y-126328157D01*
X108484009Y-126187809D01*
X108624357Y-125977765D01*
X108673640Y-125730000D01*
X108673640Y-125292161D01*
X109025484Y-125437900D01*
X109414516Y-125437900D01*
X109773936Y-125289023D01*
X110049023Y-125013936D01*
X110160109Y-124745750D01*
X142798800Y-124745750D01*
X142798800Y-125856310D01*
X142895473Y-126089699D01*
X143074102Y-126268327D01*
X143307491Y-126365000D01*
X144418050Y-126365000D01*
X144576800Y-126206250D01*
X144576800Y-124587000D01*
X144830800Y-124587000D01*
X144830800Y-126206250D01*
X144989550Y-126365000D01*
X146100109Y-126365000D01*
X146333498Y-126268327D01*
X146512127Y-126089699D01*
X146608800Y-125856310D01*
X146608800Y-124745750D01*
X146450050Y-124587000D01*
X144830800Y-124587000D01*
X144576800Y-124587000D01*
X142957550Y-124587000D01*
X142798800Y-124745750D01*
X110160109Y-124745750D01*
X110197900Y-124654516D01*
X110197900Y-124265484D01*
X110049023Y-123906064D01*
X109773936Y-123630977D01*
X109414516Y-123482100D01*
X109025484Y-123482100D01*
X108673640Y-123627839D01*
X108673640Y-123190000D01*
X108648516Y-123063690D01*
X142798800Y-123063690D01*
X142798800Y-124174250D01*
X142957550Y-124333000D01*
X144576800Y-124333000D01*
X144576800Y-122713750D01*
X144830800Y-122713750D01*
X144830800Y-124333000D01*
X146450050Y-124333000D01*
X146608800Y-124174250D01*
X146608800Y-123475750D01*
X153562500Y-123475750D01*
X153562500Y-123791310D01*
X153659173Y-124024699D01*
X153837802Y-124203327D01*
X154071191Y-124300000D01*
X154349250Y-124300000D01*
X154508000Y-124141250D01*
X154508000Y-123317000D01*
X153721250Y-123317000D01*
X153562500Y-123475750D01*
X146608800Y-123475750D01*
X146608800Y-123063690D01*
X146512127Y-122830301D01*
X146333498Y-122651673D01*
X146181444Y-122588690D01*
X153562500Y-122588690D01*
X153562500Y-122904250D01*
X153721250Y-123063000D01*
X154508000Y-123063000D01*
X154508000Y-122238750D01*
X154349250Y-122080000D01*
X154071191Y-122080000D01*
X153837802Y-122176673D01*
X153659173Y-122355301D01*
X153562500Y-122588690D01*
X146181444Y-122588690D01*
X146100109Y-122555000D01*
X144989550Y-122555000D01*
X144830800Y-122713750D01*
X144576800Y-122713750D01*
X144418050Y-122555000D01*
X143307491Y-122555000D01*
X143074102Y-122651673D01*
X142895473Y-122830301D01*
X142798800Y-123063690D01*
X108648516Y-123063690D01*
X108624357Y-122942235D01*
X108484009Y-122732191D01*
X108273965Y-122591843D01*
X108026200Y-122542560D01*
X105486200Y-122542560D01*
X105238435Y-122591843D01*
X105028391Y-122732191D01*
X104888043Y-122942235D01*
X104838760Y-123190000D01*
X103580000Y-123190000D01*
X103580000Y-111507381D01*
X144018000Y-111507381D01*
X144018000Y-112012619D01*
X144211346Y-112479397D01*
X144568603Y-112836654D01*
X145035381Y-113030000D01*
X145540619Y-113030000D01*
X146007397Y-112836654D01*
X146364654Y-112479397D01*
X146558000Y-112012619D01*
X146558000Y-111507381D01*
X146364654Y-111040603D01*
X146007397Y-110683346D01*
X145540619Y-110490000D01*
X145035381Y-110490000D01*
X144568603Y-110683346D01*
X144211346Y-111040603D01*
X144018000Y-111507381D01*
X103580000Y-111507381D01*
X103580000Y-105695750D01*
X104851200Y-105695750D01*
X104851200Y-106806310D01*
X104947873Y-107039699D01*
X105126502Y-107218327D01*
X105359891Y-107315000D01*
X106470450Y-107315000D01*
X106629200Y-107156250D01*
X106629200Y-105537000D01*
X106883200Y-105537000D01*
X106883200Y-107156250D01*
X107041950Y-107315000D01*
X108152509Y-107315000D01*
X108385898Y-107218327D01*
X108564527Y-107039699D01*
X108661200Y-106806310D01*
X108661200Y-105695750D01*
X108502450Y-105537000D01*
X106883200Y-105537000D01*
X106629200Y-105537000D01*
X105009950Y-105537000D01*
X104851200Y-105695750D01*
X103580000Y-105695750D01*
X103580000Y-104013690D01*
X104851200Y-104013690D01*
X104851200Y-105124250D01*
X105009950Y-105283000D01*
X106629200Y-105283000D01*
X106629200Y-103663750D01*
X106883200Y-103663750D01*
X106883200Y-105283000D01*
X108502450Y-105283000D01*
X108661200Y-105124250D01*
X108661200Y-104140000D01*
X142786360Y-104140000D01*
X142786360Y-106680000D01*
X142835643Y-106927765D01*
X142975991Y-107137809D01*
X143186035Y-107278157D01*
X143433800Y-107327440D01*
X143871639Y-107327440D01*
X143725900Y-107679284D01*
X143725900Y-108068316D01*
X143874777Y-108427736D01*
X144149864Y-108702823D01*
X144509284Y-108851700D01*
X144898316Y-108851700D01*
X145257736Y-108702823D01*
X145532823Y-108427736D01*
X145681700Y-108068316D01*
X145681700Y-107679284D01*
X145535961Y-107327440D01*
X145973800Y-107327440D01*
X146221565Y-107278157D01*
X146431609Y-107137809D01*
X146571957Y-106927765D01*
X146621240Y-106680000D01*
X146621240Y-104140000D01*
X146571957Y-103892235D01*
X146431609Y-103682191D01*
X146221565Y-103541843D01*
X145973800Y-103492560D01*
X143433800Y-103492560D01*
X143186035Y-103541843D01*
X142975991Y-103682191D01*
X142835643Y-103892235D01*
X142786360Y-104140000D01*
X108661200Y-104140000D01*
X108661200Y-104013690D01*
X108564527Y-103780301D01*
X108385898Y-103601673D01*
X108152509Y-103505000D01*
X107041950Y-103505000D01*
X106883200Y-103663750D01*
X106629200Y-103663750D01*
X106470450Y-103505000D01*
X105359891Y-103505000D01*
X105126502Y-103601673D01*
X104947873Y-103780301D01*
X104851200Y-104013690D01*
X103580000Y-104013690D01*
X103580000Y-95960000D01*
X163120000Y-95960000D01*
X163120001Y-152960000D01*
G04 #@! TD*
M02*
